<svg width="256" height="256" viewBox="0 0 256 256" fill="none" xmlns="http://www.w3.org/2000/svg">
<path d="M95.4415 121.083C95.4415 121.083 95.4985 121.133 95.527 121.155C95.2561 121.069 94.9922 120.926 94.7284 120.727C93.73 119.914 92.7888 119.051 91.8974 118.145C93.1097 119.129 94.3076 120.128 95.4985 121.133C95.4842 121.119 95.4629 121.097 95.4415 121.083Z" fill="#7C8370"/>
<path d="M128.871 80.33C128.871 80.33 128.878 80.3228 128.886 80.3157C128.878 80.3228 128.871 80.33 128.857 80.3371C128.857 80.3371 128.864 80.33 128.871 80.3228V80.33Z" fill="#7C8370"/>
<path d="M87.6759 100.717C87.6046 100.632 87.5261 100.553 87.4548 100.468L87.5261 99.612C87.7543 99.9115 87.9825 100.218 88.2036 100.525C88.282 100.66 88.3676 100.803 88.4674 100.945C88.2036 100.867 87.9469 100.789 87.683 100.717H87.6759Z" fill="#7C8370"/>
<path d="M162.672 73.0778C162.636 74.3828 161.809 75.6164 161.181 76.6647C160.155 78.3761 158.999 79.9948 157.844 81.5993C153.045 88.1098 147.711 94.114 142.741 100.475C137.428 107.149 132.558 114.28 126.504 120.22C123.587 123.058 120.599 125.811 117.576 128.521C115.294 130.574 112.755 132.236 110.317 134.061C110.038 134.382 109.668 134.596 109.275 134.675C109.176 134.689 109.083 134.703 108.983 134.703C108.612 134.703 108.241 134.561 107.921 134.254C107.607 133.955 107.414 133.527 107.364 133.085C105.91 132.699 105.018 130.967 105.496 129.469C106.166 127.337 106.958 125.255 107.749 123.18C112.342 109.11 121.776 97.9433 131.959 88.3237L132.137 88.174L132.315 88.0242L132.501 87.8745L132.686 87.7247L132.879 87.575L133.071 87.4181L133.264 87.2612L133.464 87.1044L133.663 86.9475L133.87 86.7835L134.077 86.6194L134.291 86.4554L134.505 86.2914L134.719 86.1274L134.933 85.9634L135.146 85.7994L135.353 85.6354L135.56 85.4785L135.767 85.3216L135.967 85.1719L136.159 85.0221L136.352 84.8795L136.544 84.7298L136.737 84.5871L136.929 84.4445L137.115 84.3019L137.307 84.1593L137.485 84.0238L137.664 83.8883L137.835 83.7528L137.999 83.6245L138.163 83.4961L138.32 83.3678L138.469 83.2394L138.619 83.111L138.769 82.9898L138.912 82.8615L139.061 82.7331L139.204 82.6047L139.354 82.4693L139.503 82.3409L139.653 82.2054L139.803 82.0699L139.953 81.9344L140.095 81.7989L140.238 81.6706L140.373 81.5422L140.502 81.421L140.63 81.2998L140.751 81.1857L140.865 81.0787L140.965 80.9789L141.058 80.8862L141.151 80.7935L141.236 80.7079L141.322 80.6152L141.407 80.5296L141.493 80.4369L141.579 80.3442L141.671 80.2444L141.764 80.1446L141.864 80.0447L141.964 79.9378L142.071 79.8237L142.185 79.7096L142.299 79.5884L142.413 79.4671L142.527 79.3388L142.641 79.2104L142.755 79.0821L142.869 78.9608L142.983 78.8396L143.083 78.7255L143.183 78.6114L143.276 78.5045L143.361 78.4046L143.447 78.3119L143.525 78.2192L143.604 78.1265L143.682 78.0338L143.761 77.934L143.846 77.8342L143.932 77.7272L144.017 77.6202L144.046 77.5846C147.262 75.046 150.656 72.7855 154.379 71.1382C156.939 69.8333 162.429 68.4855 162.636 73.0992L162.672 73.0778Z" fill="#7C8370"/>
<path d="M102.572 133.277C104.833 134.461 103.642 137.976 101.382 137.976C101.146 137.976 100.897 137.941 100.64 137.855C84.4456 131.815 70.5759 120.855 57.7546 109.503C52.9127 104.703 48.3703 99.6476 43.8564 94.5704C43.4143 92.0746 43.072 89.5574 42.7083 87.0473C42.7083 87.0473 42.7083 87.0402 42.7083 87.033C42.9579 87.2897 43.2075 87.5465 43.4571 87.8032C43.9277 86.6979 45.1186 85.8921 46.4877 86.5125C58.0398 93.0087 67.9232 102.172 79.1758 109.224C85.1872 113.496 90.9989 118.06 96.9033 122.481C97.4952 122.26 98.251 122.36 99.1781 122.909C99.1781 122.909 99.1781 122.909 99.1781 122.902C99.6772 123.358 100.02 124.149 100.276 125.091C100.39 125.169 100.512 125.24 100.633 125.312C100.747 125.376 100.868 125.447 100.982 125.519C101.788 126.36 101.546 127.636 100.811 128.385C100.911 129.391 100.975 130.332 101.046 131.017C100.989 131.53 100.79 131.986 100.497 132.357C101.196 132.671 101.888 132.978 102.587 133.284L102.572 133.277Z" fill="#7C8370"/>
<path d="M142.912 29.3724C144.93 29.0159 148.068 29.4437 148.089 32.0394C147.889 34.8418 142.941 37.3519 140.944 39.2131C128.322 49.0395 117.07 60.4704 104.262 70.0757C101.681 72.0011 99.2708 74.1475 96.7179 76.1013C96.504 76.2867 96.233 76.3794 95.962 76.3794C95.634 76.3794 95.3131 76.2368 95.0992 75.9587C94.3005 74.8392 95.7124 74.1403 96.4113 73.5128C96.5681 73.3631 96.7322 73.2133 96.889 73.0707C96.2473 73.0707 95.4771 72.814 94.543 72.272C93.9297 71.4805 93.566 70.2397 93.4947 68.9561C92.9242 68.4213 92.6033 67.6298 92.7246 66.8169C92.9242 65.4406 93.2166 64.0715 93.5161 62.7166C92.0471 63.23 91.3483 61.6184 91.1629 60.4418C90.8705 59.2153 90.5568 57.9817 90.3001 56.7409C88.881 49.1964 88.3747 41.4665 89.0379 33.8079C89.7153 26.2847 91.6692 18.8828 94.6784 11.9587C96.0832 9.41298 97.5237 2.23214 101.553 5.48384C105.617 12.3081 105.646 27.4114 104.505 35.2982C103.521 42.1724 101.332 48.7899 99.9553 55.5857C99.7414 56.5911 99.5346 57.6037 99.3207 58.6163C99.3349 58.6163 99.3492 58.6163 99.3706 58.6234C99.4704 58.652 99.5703 58.6876 99.663 58.7233C104.227 52.5194 109.675 46.9787 115.765 42.2651C123.758 36.211 133.029 31.3762 142.912 29.3796V29.3724Z" fill="#7C8370"/>
<path d="M93.2808 70.7674C93.8227 72.5287 92.2753 73.798 90.7992 73.798C89.9792 73.798 89.1805 73.4059 88.7669 72.4931C88.7384 72.486 88.717 72.4788 88.6956 72.4646C88.4817 72.379 88.2963 72.272 88.1322 72.1437C88.011 72.1152 87.8898 72.0795 87.7757 72.0367C88.7312 73.2276 89.7082 74.4184 90.7065 75.6164C91.7262 76.8572 91.1914 78.3404 90.1574 79.1248C88.8382 77.606 87.6331 76.0799 86.1142 74.6894C84.7879 73.4772 83.3189 72.4432 81.8713 71.3878C81.2438 70.8601 80.6377 70.3039 80.0458 69.7334C79.5965 69.277 79.1402 68.8207 78.6909 68.3714C73.8918 61.5329 69.87 54.1738 67.4241 46.1657C64.7785 37.8083 61.8833 29.5364 59.2235 21.179C58.9668 20.2876 58.6673 19.382 58.4106 18.4621C58.1396 18.1769 57.8615 17.8916 57.5905 17.6064C55.7008 16.6223 56.2642 14.2406 57.7046 13.5204C57.7331 13.1282 57.7831 12.7289 57.8686 12.3367C58.7315 8.51448 64.4077 10.0476 62.0331 13.5917C62.1614 14.5829 62.354 15.567 62.5893 16.551C70.8897 25.2151 78.3058 35.0558 83.5114 45.8591C85.7363 50.4443 87.7115 55.1436 89.5085 59.9141C89.6012 60.4347 89.7296 60.9481 89.972 61.4188C90.0505 61.5685 90.136 61.7111 90.2287 61.8466C91.3126 64.806 92.3324 67.7867 93.295 70.7817L93.2808 70.7674Z" fill="#7C8370"/>
<path d="M147.761 50.0022C148.039 52.0202 146.499 53.7744 145.486 55.3789C143.54 58.1885 141.479 60.9267 139.518 63.7292C135.603 69.4125 131.602 75.0531 127.003 80.2159C122.011 85.835 116.292 90.7126 110.837 95.854C108.748 97.6224 101.474 105.302 99.1353 104.547C98.8001 105.602 97.9373 106.479 96.9247 106.664C96.7892 106.693 96.6537 106.7 96.5182 106.7C96.1688 106.7 95.8051 106.615 95.4415 106.429C95.1634 106.287 94.9209 106.094 94.7284 105.866C94.8211 105.737 94.9067 105.588 94.9637 105.431C95.2703 104.632 94.9922 103.727 94.3362 103.213C94.3504 103.185 94.3647 103.163 94.3718 103.135C94.4503 102.971 94.5287 102.814 94.6143 102.65C79.4397 96.6241 65.456 78.2335 59.8582 63.9289C59.7084 63.8575 59.5658 63.7934 59.4161 63.7292C59.5373 63.9217 59.6728 64.1071 59.8154 64.2783C59.8653 64.4708 59.9295 64.6491 60.0079 64.8345C60.0079 64.8487 60.0151 64.863 60.0222 64.8701C59.6157 64.4138 59.2235 63.9574 58.8884 63.501C58.76 63.4439 58.6317 63.3869 58.4962 63.337C57.2839 62.8236 56.0503 62.3458 54.8808 61.7468C52.9127 60.6558 54.2248 57.4825 56.4068 58.1172C57.1413 58.3382 57.8687 58.5878 58.5889 58.8516C58.6174 58.8302 58.6388 58.8089 58.6673 58.7875C58.6531 58.816 58.6388 58.8374 58.6245 58.8659C59.794 59.2938 60.9421 59.7644 62.0759 60.285C62.7391 60.2707 63.4023 60.5274 63.8729 61.1549C69.9413 64.2497 75.3751 68.5925 80.1884 73.3987C86.0215 79.1961 91.4767 85.614 95.1705 93.0159L94.8924 94.0213L94.6571 94.9198L94.5216 95.4618L94.5002 95.5402L96.4327 98.2286C96.2901 98.3926 96.0975 98.5423 95.8479 98.6707C95.6625 98.7491 95.4557 98.7848 95.2561 98.7848C95.142 98.7848 95.035 98.7705 94.9281 98.7491C95.3916 98.9916 95.8693 99.2198 96.3471 99.4266C96.6395 98.8989 96.9247 98.3712 97.2099 97.8364C102.829 86.5909 110.58 76.3794 119.466 67.5585C126.789 60.67 134.227 53.6389 143.005 48.6402C144.688 47.6062 147.305 47.706 147.768 50.0093L147.761 50.0022Z" fill="#7C8370"/>
<path d="M111.55 232.354C107.507 228.796 82.3919 212.131 91.8404 207.075C93.9369 206.476 95.2632 208.13 95.9549 209.863C97.7163 212.309 99.9839 214.341 102.202 216.359C106.509 220.132 111.258 223.369 115.708 226.963C119.195 229.659 115.044 235.05 111.543 232.354H111.55Z" fill="#47443E"/>
<path d="M92.2896 64.97C92.4465 53.917 93.4876 42.8998 94.9138 31.9467C96.1403 23.8174 96.7821 15.46 99.1781 7.5732C99.3207 6.92429 100.069 6.55348 100.683 6.71749C102.13 7.21665 101.403 8.60005 101.218 9.61977C99.2708 20.8652 97.9587 32.2248 96.7892 43.5772C96.0262 50.6939 95.6982 57.8177 95.4914 64.9628C95.4415 67.0379 92.3467 67.0807 92.2896 64.9628V64.97Z" fill="#47443E"/>
<path d="M97.2384 69.9402C95.5413 68.6567 97.702 66.5958 98.5149 65.3907C100.233 63.2586 102.08 61.212 103.87 59.1369C112.52 48.6972 123.808 41.4379 135.004 34.1074C135.731 33.6652 136.715 33.9433 137.143 34.6707C137.585 35.4266 137.3 36.3536 136.58 36.81C135.039 37.794 133.506 38.7924 132.159 39.698C126.24 43.8339 120.007 47.7773 114.588 52.5336C109.069 57.5823 103.963 63.2086 99.2636 69.0061C98.9641 69.8119 98.0728 70.4394 97.2384 69.9331V69.9402Z" fill="#47443E"/>
<path d="M90.7422 70.3324C89.5656 70.1114 89.0593 68.8207 88.389 67.965C87.3193 66.3462 86.2212 64.5492 85.1658 63.0018C82.0496 58.4951 78.969 53.9527 76.2593 49.1964C70.7827 39.0348 64.6858 29.1514 59.9794 18.6047C58.7457 16.2658 61.8976 15.1676 62.7177 17.5707C65.6485 23.8673 69.3209 29.7575 72.6439 35.8473C76.8084 43.3561 80.8445 50.972 85.7577 58.0245C87.6188 60.6843 89.5727 63.7078 91.2699 66.3605C91.5836 66.824 91.9117 67.2875 92.2539 67.7296C93.1453 68.8207 92.1398 70.582 90.7422 70.3395V70.3324Z" fill="#47443E"/>
<path d="M88.824 95.3976C83.6327 88.4093 77.7924 81.8988 71.9807 75.4168C68.5579 71.4591 64.2223 67.9578 62.2542 62.9876C61.5625 61.1906 64.1795 60.071 64.9639 61.8395C66.9748 66.1537 70.633 68.9704 73.685 72.4289C78.8692 77.9482 83.7681 83.7314 88.6172 89.5503C89.6084 90.7839 90.5639 92.0532 91.4624 93.3582C91.7191 93.729 91.8546 94.1497 91.7976 94.6061C91.6478 96.0251 89.6654 96.5671 88.8168 95.3976H88.824Z" fill="#47443E"/>
<path d="M103.143 93.4223C102.751 92.9018 102.786 92.1602 103.243 91.6966C104.348 89.864 105.325 87.9529 106.566 86.2058C115.123 74.5111 125.455 64.0429 137 55.2862C138.02 54.5018 139.496 53.1754 140.609 54.5588C141.129 55.2363 141.015 56.2631 140.323 56.7765C132.223 62.5169 125.049 69.3198 118.346 76.5862C114.78 80.5795 111.244 84.4802 108.227 88.8657C107.058 90.1421 105.275 95.6115 103.15 93.4152L103.143 93.4223Z" fill="#47443E"/>
<path d="M109.532 123.6C107.593 122.067 110.887 119.443 111.671 117.946C115.914 112.12 120.842 106.836 125.926 101.737C131.716 95.9609 137.386 90.0708 143.383 84.5087C147.29 80.929 150.906 76.9927 155.298 73.9906C156.625 73.1063 160.561 70.7104 161.025 73.3845C161.025 74.0262 160.533 74.5183 159.941 74.5824C157.716 75.2171 156.004 77.0141 154.243 78.4331C152.197 80.2444 150.271 82.1983 148.317 84.1094C138.819 93.2512 129.328 102.5 120.457 112.248C118.895 114.016 117.362 115.813 115.914 117.682C114.488 119.514 113.183 121.447 111.8 123.308C111.272 124.014 110.217 124.128 109.532 123.6V123.6Z" fill="#47443E"/>
<path d="M96.2116 128.549C90.8919 126.289 85.7149 123.679 81.0798 120.206C81.0941 120.213 81.1083 120.227 81.1226 120.235C81.1511 120.256 81.1796 120.27 81.2082 120.292C76.2807 117.083 71.9023 113.211 67.6309 109.196C62.8175 104.668 58.3536 99.669 52.8485 96.0251C52.5205 95.8183 52.3921 95.3976 52.5918 95.0553C52.7843 94.7344 53.2336 94.5989 53.5616 94.7986C55.815 96.1606 57.9257 98.0147 59.8582 99.7118C66.3402 105.409 72.5013 111.542 79.618 116.455C81.8856 117.924 84.1461 119.422 86.4423 120.855C89.9792 122.937 93.5732 124.371 97.2242 126.153C98.7574 126.859 97.8161 129.163 96.2187 128.542L96.2116 128.549Z" fill="#47443E"/>
<path d="M97.0887 65.4763C95.8123 64.9343 95.2703 63.4725 95.7623 62.2032C96.9318 59.1868 98.1369 56.1847 99.2066 53.1326C100.069 50.6083 100.804 48.0554 101.36 45.4455C103.335 34.3355 104.94 15.2461 99.3492 5.25564C96.4041 11.1814 94.1008 17.5351 92.6319 23.9886C91.3126 30.2994 91.6407 36.2395 91.9616 42.5361C92.2753 47.1427 93.0526 51.7065 93.9226 56.2346C94.1935 57.7891 95.1134 60.5844 92.7103 60.7485C90.1503 60.5773 89.7082 56.0777 89.0521 54.1167C86.8629 44.276 86.1213 33.9005 87.7614 23.9173C88.9167 17.8203 91.1344 11.9801 93.6302 6.31102C94.7783 3.41587 97.0102 -0.819901 100.761 0.627676C105.717 3.00227 106.63 11.7448 107.493 16.658C108.327 22.213 108.12 27.8464 107.799 33.437C107.429 42.3079 105.653 51.0718 102.244 59.2724C101.624 60.8911 101.004 62.5169 100.362 64.1285C99.8555 65.3978 98.3152 65.9754 97.0887 65.4549V65.4763Z" fill="#47443E"/>
<path d="M97.5879 74.1332C95.1562 71.9084 98.793 69.5694 100.198 67.9222C106.366 61.9037 113.44 56.8978 120.457 51.9275C129.107 45.8591 138.89 40.2899 143.982 30.6275C132.287 35.234 120.721 41.4665 111.351 49.8025C106.316 54.1951 101.866 59.1012 98.9285 64.9557C97.9515 66.9951 96.7179 69.1843 96.6466 71.4734C96.668 72.3077 96.1046 73.0636 95.2489 73.1777C91.8261 73.2418 93.73 67.5728 94.4645 65.7686C98.4792 55.6285 106.601 47.87 115.173 41.4522C120.828 37.2378 126.946 33.651 133.342 30.6845C137.471 28.9446 141.536 26.4202 146.042 25.9211C152.703 26.9408 146.092 35.5549 144.032 38.3431C136.138 48.1838 124.4 53.7245 114.674 61.4901C110.523 64.6206 106.73 67.4872 103.2 71.0455C101.574 72.3362 100.02 75.7733 97.595 74.1261L97.5879 74.1332Z" fill="#47443E"/>
<path d="M92.0115 73.5984C88.7741 64.3781 85.4012 55.1863 81.0656 46.4153C77.1578 38.4643 71.8952 31.4261 66.5542 24.4236C64.2509 21.3929 62.0403 17.9273 59.5801 15.1177C58.8242 14.262 58.0113 13.4419 57.1984 12.6362C56.5352 11.9872 56.5423 10.8677 57.1984 10.2188C58.3536 9.12061 59.5872 10.0476 60.443 11.0032C64.1296 14.1194 66.7467 18.2268 69.7345 21.9705C74.4409 27.9106 79.0547 33.9719 82.6914 40.6393C88.1965 50.5726 92.1114 61.2833 95.9193 71.9511C96.9461 74.5183 93.1311 76.1584 92.0115 73.6055V73.5984Z" fill="#47443E"/>
<path d="M90.7778 79.46C82.6129 74.0762 77.4216 65.6046 72.9648 57.1188C66.2546 44.4044 60.0935 31.0553 57.7118 16.7792C57.3909 14.9252 57.0272 7.35214 60.065 8.22925C61.4198 8.84251 60.5142 10.1403 60.4928 11.1957C60.4073 12.9998 60.7281 14.9394 61.0419 16.5225C64.479 30.9056 70.9325 44.3402 78.0278 57.126C81.8927 64.3353 86.6562 71.2523 93.6516 75.7448C96.0333 77.606 93.2879 81.2998 90.7921 79.4529L90.7778 79.46Z" fill="#47443E"/>
<path d="M104.348 89.1723C104.348 89.0725 104.426 88.994 104.526 88.994C104.626 88.994 104.705 89.0725 104.705 89.1723C104.705 89.2722 104.626 89.3506 104.526 89.3506C104.426 89.3506 104.348 89.2722 104.348 89.1723Z" fill="#47443E"/>
<path d="M100.405 102.229C98.5648 102.029 97.8802 99.4765 99.3777 98.3855C102.715 96.1749 106.131 94.0641 109.204 91.4827C122.004 81.4638 133.107 68.8991 141.25 54.8726C128.108 64.7632 114.502 75.0887 106.038 89.4005C107.443 93.3011 101.103 92.6237 102.052 89.0154C108.234 75.4025 120.671 65.3336 132.358 56.4271C135.567 54.6729 145.7 43.4774 147.198 51.0861C145.436 58.2384 140.331 64.371 136.209 70.3895C125.948 82.5192 114.937 95.5616 100.405 102.236V102.229Z" fill="#47443E"/>
<path d="M112.463 129.804C111.215 128.164 112.698 126.645 114.039 125.711C118.703 121.532 122.739 116.712 127.174 112.298C137.899 101.216 155.334 86.7763 160.212 72.2364C159.691 72.4574 159.278 72.6642 158.864 72.871C158.878 72.871 158.885 72.8568 158.9 72.8568C158.9 72.8568 158.914 72.8568 158.921 72.8496C152.696 75.9872 146.848 80.0162 141.785 84.744C131.588 94.5134 120.492 103.605 112.042 114.986C111.6 118.937 106.523 116.227 108.598 113.168C117.241 100.532 129.606 91.005 140.58 80.4868C145.943 75.267 170.701 57.2757 162.686 77.5489C157.759 87.7675 149.216 95.6329 141.757 103.997C136.273 109.588 130.404 114.787 125.185 120.634C122.603 122.659 115.586 133.434 112.477 129.804H112.463ZM110.973 113.489C110.666 113.339 110.338 113.296 110.003 113.332C110.338 113.303 110.68 113.36 110.973 113.489Z" fill="#47443E"/>
<path d="M95.5484 136.358C75.425 125.661 54.4886 113.596 41.3392 94.4064C38.7863 91.0834 36.9893 84.7797 43.4214 85.4357C51.2654 87.0473 58.0968 91.8393 64.6573 96.2177C76.9082 104.055 87.7757 113.61 98.4293 123.429C99.9125 124.699 102.344 126.467 100.754 128.585C99.9411 129.633 98.3794 129.84 97.3311 129.027C91.3768 123.879 85.558 118.423 79.7463 113.161C68.508 104.539 57.1128 94.8129 43.7209 89.9139C56.307 109.61 77.8709 121.319 97.6164 132.428C102.016 129.918 102.408 138.732 95.5556 136.35L95.5484 136.358Z" fill="#47443E"/>
<path d="M96.668 104.34C86.0215 103.833 79.0831 94.7772 73.0147 87.1043C69.599 82.6404 66.0977 78.2406 62.8104 73.6768C59.5801 68.9918 55.7508 64.043 55.6794 58.1029C55.6794 57.3256 56.3284 56.6767 57.1056 56.6767C58.9668 56.7552 58.3892 58.8302 58.7243 60.071C59.3947 63.4796 61.3628 66.4889 63.2168 69.2699C68.6007 76.9071 74.4694 84.6014 80.4736 91.6753C84.7023 96.7097 90.2002 101.238 97.053 101.516C98.8857 101.787 98.5363 104.539 96.668 104.34V104.34Z" fill="#47443E"/>
<path d="M94.4931 94.82C84.5526 80.9361 73.5781 65.9469 56.7563 60.4062C55.5725 59.7644 53.1623 59.3864 53.8183 57.5538C54.1178 56.8478 54.9735 56.477 55.6866 56.7908C58.7529 58.2669 62.1472 59.3722 65.1351 60.9125C68.9715 62.7879 72.7153 65.4834 75.7958 68.3072C82.0924 73.8123 87.3978 80.3157 92.3609 87.0188C93.8442 89.0225 95.2846 91.062 96.7536 93.08C97.21 93.7076 97.1244 94.5918 96.4969 95.0767C95.8979 95.5402 94.9566 95.4475 94.5002 94.82H94.4931Z" fill="#47443E"/>
<path d="M99.1212 191.708C98.2441 189.911 100.633 188.057 102.173 189.219C101.168 190.01 100.169 190.831 99.1854 191.651C99.164 191.672 99.1426 191.686 99.1212 191.7V191.708Z" fill="#7C8370"/>
<path d="M110.973 151.881C109.91 151.446 109.411 150.17 109.853 149.122C110.153 148.337 110.474 147.567 110.809 146.797C110.823 146.804 110.83 146.811 110.844 146.826C111.137 147.004 111.458 146.883 111.743 146.747C111.871 146.683 111.985 146.59 112.092 146.505C112.192 146.433 112.285 146.355 112.385 146.277C112.513 146.17 112.641 146.063 112.77 145.949C112.962 145.77 113.148 145.599 113.34 145.421C113.511 145.264 113.683 145.1 113.847 144.936C113.911 145.164 113.982 145.385 114.053 145.606C114.267 146.241 114.488 146.868 114.759 147.475C114.331 147.988 113.911 148.501 113.483 149.015C113.226 149.321 112.977 149.621 112.727 149.92C112.591 150.084 112.449 150.241 112.321 150.412C112.249 150.498 112.185 150.591 112.114 150.683C112.064 150.755 112.028 150.833 111.993 150.919C111.928 151.069 111.943 151.225 111.993 151.368C112.071 151.639 112.321 151.81 112.577 151.81C112.649 151.81 112.72 151.796 112.791 151.767C112.477 151.939 112.128 152.031 111.779 152.031C111.508 152.031 111.244 151.981 110.987 151.867L110.973 151.881Z" fill="#7C8370"/>
<path d="M113.319 151.425C113.383 151.368 113.447 151.311 113.519 151.247C113.647 151.126 113.775 151.004 113.911 150.89C114.139 150.683 114.353 150.47 114.574 150.256C114.781 150.056 114.98 149.856 115.18 149.657C115.18 149.671 115.18 149.692 115.18 149.707C115.194 149.863 115.216 150.02 115.244 150.177C115.258 150.256 115.273 150.334 115.294 150.412C114.959 150.626 114.631 150.847 114.303 151.069C114.089 151.297 113.782 151.439 113.483 151.439C113.426 151.439 113.376 151.439 113.319 151.425V151.425Z" fill="#7C8370"/>
<path d="M112.663 144.693C112.663 144.693 112.649 144.715 112.641 144.722C112.641 144.708 112.656 144.701 112.663 144.693Z" fill="#7C8370"/>
<path d="M113.469 143.51C113.476 143.553 113.49 143.588 113.497 143.631C113.376 143.752 113.255 143.873 113.141 143.995C113.248 143.831 113.362 143.674 113.469 143.51V143.51Z" fill="#7C8370"/>
<path d="M113.084 141.863C113.105 141.82 113.119 141.777 113.148 141.734C113.155 141.798 113.162 141.863 113.176 141.927C113.055 142.098 112.934 142.269 112.813 142.44C112.905 142.248 112.991 142.055 113.084 141.87V141.863Z" fill="#7C8370"/>
<path d="M116.335 139.445C116.335 139.445 116.371 139.395 116.392 139.367C116.392 139.431 116.392 139.495 116.392 139.559C116.378 139.524 116.357 139.481 116.342 139.445H116.335Z" fill="#7C8370"/>
<path d="M144.452 99.2838C144.117 99.7616 143.782 100.239 143.44 100.717C142.541 101.972 141.564 103.17 140.559 104.34L140.623 104.261C140.11 104.853 139.589 105.452 139.076 106.044C140.851 103.776 142.634 101.516 144.452 99.2767V99.2838Z" fill="#7C8370"/>
<path d="M162.993 82.0983C163.1 81.977 163.207 81.8487 163.314 81.7275C163.221 81.9628 163.143 82.2052 163.093 82.4548C163.078 82.3265 163.043 82.2124 162.993 82.0983Z" fill="#7C8370"/>
<path d="M150.956 115.164C151.32 114.565 151.726 113.995 152.132 113.424C152.346 113.118 152.567 112.811 152.796 112.512C152.104 113.574 151.398 114.63 150.678 115.671C150.77 115.5 150.863 115.328 150.963 115.157L150.956 115.164Z" fill="#7C8370"/>
<path d="M153.687 110.636C153.687 110.636 153.658 110.679 153.644 110.7C153.658 110.679 153.673 110.658 153.687 110.636Z" fill="#7C8370"/>
<path d="M155.177 108.64C155.327 108.319 155.498 107.998 155.627 107.67C155.676 107.549 155.705 107.42 155.712 107.299C155.712 107.299 155.712 107.292 155.719 107.285C155.883 107.206 156.04 107.121 156.19 107.028C155.798 107.691 155.398 108.354 154.999 109.017C155.056 108.889 155.113 108.768 155.177 108.64V108.64Z" fill="#7C8370"/>
<path d="M158.13 103.298C158.301 102.992 158.465 102.692 158.636 102.386H158.65C158.543 102.593 158.436 102.806 158.315 103.006C158.251 103.106 158.194 103.206 158.13 103.306C158.13 103.306 158.13 103.306 158.13 103.298V103.298Z" fill="#7C8370"/>
<path d="M69.6277 194.189C69.6277 194.089 69.7061 194.011 69.806 194.011C69.9058 194.011 69.9842 194.089 69.9842 194.189C69.9842 194.289 69.9058 194.367 69.806 194.367C69.7061 194.367 69.6277 194.289 69.6277 194.189Z" fill="#7C8370"/>
<path d="M68.6436 195.052C68.6436 194.952 68.7221 194.874 68.8219 194.874C68.9217 194.874 69.0002 194.952 69.0002 195.052C69.0002 195.152 68.9217 195.23 68.8219 195.23C68.7221 195.23 68.6436 195.152 68.6436 195.052Z" fill="#7C8370"/>
<path d="M156.062 159.212C156.062 159.112 156.14 159.034 156.24 159.034C156.34 159.034 156.418 159.112 156.418 159.212C156.418 159.312 156.34 159.39 156.24 159.39C156.14 159.39 156.062 159.312 156.062 159.212Z" fill="#7C8370"/>
<path d="M190.975 87.7959C193.313 98.1429 190.39 109.146 187.395 119.108C183.922 129.255 179.23 138.925 174.581 148.566C173.782 149.657 173.368 151.482 172.812 153.129C172.684 153.172 172.548 153.215 172.413 153.258H172.398C172.398 153.258 172.391 153.258 172.384 153.258C172.377 153.258 172.37 153.258 172.363 153.258C172.156 153.308 171.942 153.336 171.735 153.4C171.557 153.45 171.386 153.522 171.215 153.607C170.858 153.778 170.53 154.006 170.195 154.213C169.838 154.427 169.482 154.634 169.133 154.862C168.805 155.076 168.484 155.283 168.141 155.483C167.977 155.568 167.813 155.654 167.642 155.725C167.614 155.732 167.592 155.739 167.564 155.754C167.143 155.169 166.979 154.406 167.186 153.671C167.271 153.379 167.371 153.094 167.478 152.801C164.219 152.423 165.81 144.494 165.503 141.977C166.152 125.996 174.787 112.162 182.253 98.535C184.357 96.0178 186.482 82.7828 190.975 87.7816V87.7959Z" fill="#7C8370"/>
<path d="M172.933 168.126C173.047 167.848 173.219 167.598 173.418 167.377C172.406 166.992 171.507 166.593 170.73 166.186C171.443 166.871 172.177 167.52 172.933 168.126ZM232.398 184.042C234.68 187.294 231.592 189.454 228.533 189.454C228.041 189.454 227.549 189.397 227.078 189.283C218.821 188.52 210.635 185.539 202.605 183.949C196.53 182.73 190.368 181.824 184.464 179.892C180.606 178.772 163.435 171.306 166.737 166.343C167.314 165.594 168.348 165.202 169.282 165.359C162.544 160.981 167.05 156.074 169.603 157.265C169.675 157.244 169.746 157.215 169.817 157.187C170.174 157.151 170.523 157.144 170.851 157.173C184.899 156.895 197.656 163.869 209.65 170.393C217.345 174.686 226.023 177.767 232.384 184.042H232.398Z" fill="#7C8370"/>
<path d="M228.319 95.7825C229.517 97.7435 227.841 100.368 227.257 102.336C222.686 113.845 216.432 125.205 206.948 133.391C206.598 133.69 206.242 133.983 205.885 134.275C205.4 134.183 204.901 134.147 204.409 134.168C201.899 134.289 199.81 135.545 198.384 137.598C197.728 138.554 197.3 139.659 197.1 140.807C195.403 141.934 193.656 143.011 191.88 144.016C190.062 145.071 188.236 146.134 186.382 147.111C185.954 147.225 185.527 147.368 185.106 147.517C184.122 147.874 183.166 148.316 182.218 148.772C182.189 148.772 182.154 148.765 182.132 148.758C182.089 148.794 182.054 148.837 182.011 148.872C181.94 148.908 181.868 148.936 181.804 148.972C181.12 149.293 180.414 149.607 179.758 149.978C179.109 150.341 178.495 150.755 177.882 151.161C177.847 151.19 177.811 151.211 177.768 151.233C177.554 151.325 177.326 151.418 177.105 151.511C177.098 151.511 177.091 151.511 177.084 151.518C177.084 151.518 177.076 151.518 177.069 151.518C176.912 151.582 176.748 151.646 176.591 151.717C176.563 151.689 176.542 151.668 176.52 151.632C175.764 150.648 176.684 149.721 177.476 149.15C178.403 148.33 179.28 147.453 180.136 146.555C179.979 144.886 181.547 144.216 182.824 143.638C186.461 139.602 189.969 135.466 193.435 131.294C197.029 126.938 200.922 122.345 205.172 118.701C208.802 115.542 212.603 112.362 215.726 108.718C217.972 106.158 220.054 103.47 221.973 100.66C222.843 99.3551 223.627 98.0074 224.454 96.681C224.839 96.0606 225.232 95.4688 225.923 95.1479C226.743 94.7699 227.77 95.0766 228.305 95.7754L228.319 95.7825Z" fill="#7C8370"/>
<path d="M148.296 129.74C150.984 130.703 149.408 133.726 148.517 135.487C145.914 141.021 142.748 146.391 138.32 150.669C136.074 152.83 133.749 154.912 131.438 157.009C129.941 158.356 128.429 159.697 127.003 161.13C126.048 162.214 124.678 163.84 123.152 162.678C123.124 162.649 123.102 162.628 123.074 162.606C121.897 163.398 120.607 164.189 119.508 163.726C119.423 164.197 119.373 164.681 119.352 165.166C119.344 166.015 118.703 166.443 118.068 166.443C117.433 166.443 116.784 166.022 116.756 165.166C116.542 161.587 117.99 158.185 119.644 155.09C123.951 146.512 131.246 139.93 139.076 134.589C140.466 133.633 141.871 132.678 143.29 131.751C144.802 130.881 146.421 129.326 148.289 129.74H148.296Z" fill="#7C8370"/>
<path d="M162.43 108.561C162.85 113.624 161.816 119.293 161.645 124.235C161.096 132.371 160.875 140.529 160.34 148.673C160.176 150.541 160.44 153.593 157.844 153.657C157.709 153.657 157.573 153.643 157.445 153.621C156.447 155.711 155.598 157.843 154.985 160.053C154.543 161.137 154.664 163.327 152.945 162.963C152.225 162.763 151.961 162.043 152.111 161.401C151.583 161.159 151.17 160.667 151.106 160.053C149.152 144.337 152.075 128.499 156.639 113.467C157.295 111.585 157.58 109.517 158.572 107.77C159.591 106.279 162.059 106.807 162.43 108.561V108.561Z" fill="#7C8370"/>
<path d="M139.603 246.573C142.663 249.775 139.097 253.868 135.296 252.078C119.038 245.453 104.926 234.372 93.3522 221.272C88.7029 215.782 82.991 210.655 80.1458 203.951C79.8891 202.889 80.374 201.784 81.3366 201.32C81.1227 200.357 80.9159 199.359 80.7163 198.332C80.8446 196.885 82.4205 195.972 83.7112 196.428C84.132 195.665 84.9877 195.145 86.0003 195.437C86.856 195.68 87.6689 196.207 88.382 196.685C89.3803 197.341 90.3287 198.047 91.2272 198.796C91.213 198.803 91.2058 198.817 91.1987 198.824C90.0364 199.737 88.8812 200.664 87.7473 201.605C87.0628 201.028 86.3497 200.479 85.6081 199.965C85.9218 200.842 86.2285 201.734 86.5351 202.618C86.1714 202.925 85.8077 203.238 85.4441 203.545C86.0288 204.379 86.5921 205.242 87.2553 205.813C87.0984 191.993 120.899 227.89 124.101 230.899C128.978 236.419 134.491 241.303 139.611 246.573H139.603Z" fill="#7C8370"/>
<path d="M42.5374 209.271C42.6015 209.663 42.6158 210.07 42.5659 210.483C42.5516 210.526 42.5445 210.569 42.5302 210.612C42.4304 211.845 41.3822 212.837 40.1842 212.837C39.5138 212.837 38.9149 212.544 38.4941 212.074C38.1661 211.852 37.8737 211.553 37.6598 211.154C32.9391 202.739 29.502 193.562 26.9777 184.199C24.5104 175.143 21.8292 165.986 22.3283 156.467C22.2784 155.226 23.3623 154.192 24.5175 154.192C26.5641 154.256 26.7424 156.16 26.7923 157.914C27.6979 157.707 28.6962 158.199 29.0599 159.126C32.0406 165.936 36.1766 172.254 38.4157 179.371C41.646 188.962 42.516 199.167 42.5374 209.271Z" fill="#7C8370"/>
<path d="M71.7456 195.366C69.9414 192.342 68.2871 189.24 66.761 186.074C66.7896 186.074 66.8181 186.088 66.8466 186.096C67.1247 186.146 67.3957 186.195 67.6738 186.174C67.9876 186.153 68.2728 186.053 68.5652 185.96C68.8148 185.882 69.0501 185.753 69.2783 185.625C69.3567 185.953 69.4993 186.267 69.7132 186.566C70.1482 187.172 70.9968 187.579 71.7527 187.436C71.824 187.422 71.8953 187.408 71.9666 187.393C71.7028 187.807 71.4603 188.235 71.2464 188.677C70.7971 189.611 70.6117 190.802 71.282 191.679C71.7028 192.221 72.3018 192.492 72.9436 192.492C73.1717 192.492 73.4142 192.456 73.6424 192.392C74.2984 192.2 74.9331 191.929 75.5463 191.622C76.3236 193.098 76.7443 194.531 75.311 195.851C74.8618 196.2 74.2984 196.371 73.7422 196.371C72.9721 196.371 72.2091 196.043 71.7313 195.387L71.7456 195.366Z" fill="#7C8370"/>
<path d="M82.0498 191.216C81.629 190.346 81.2226 189.469 80.8232 188.591C81.2868 188.306 81.7503 188.021 82.2209 187.743C82.663 187.5 83.098 187.272 83.5687 187.073C83.7113 187.023 83.8539 186.973 84.0036 186.93C84.0892 186.916 84.1748 186.894 84.2604 186.88C84.3245 186.88 84.3887 186.866 84.4529 186.859C84.6026 186.859 84.7595 186.88 84.9093 186.909C84.8451 186.901 84.7809 186.894 84.7096 186.88C84.788 186.901 84.8593 186.916 84.9378 186.93C85.1446 186.994 85.3514 187.073 85.5582 187.158C85.494 187.13 85.4298 187.108 85.3656 187.08L86.0502 187.379C86.3568 187.515 86.6849 187.557 86.9915 187.508C87.8115 189.896 87.8971 191.964 85.9076 192.777C85.551 192.934 85.1731 193.013 84.7952 193.013C83.6471 193.013 82.5204 192.314 82.0569 191.216H82.0498Z" fill="#7C8370"/>
<path d="M82.1139 187.793C82.1139 187.793 82.0783 187.814 82.0569 187.821C82.0783 187.807 82.0925 187.8 82.1139 187.793Z" fill="#7C8370"/>
<path d="M79.1047 184.691C79.3471 184.448 79.5967 184.199 79.8392 183.956C81.1156 182.758 82.3992 181.582 83.697 180.419C84.1819 181.475 84.8094 182.673 85.4155 183.914C85.3086 183.892 85.1945 183.871 85.0875 183.857C84.3245 183.757 83.5401 183.828 82.8056 184.099C81.9 184.427 81.0585 184.862 80.2314 185.347C80.0032 185.482 79.775 185.618 79.5539 185.746C79.4042 185.397 79.2473 185.04 79.0975 184.691H79.1047Z" fill="#7C8370"/>
<path d="M59.6444 168.382C60.0509 168.867 60.6641 169.217 61.2917 169.309C61.1419 169.58 60.9922 169.851 60.8567 170.129C60.7283 170.379 60.6142 170.643 60.5144 170.914C60.2149 170.072 59.9296 169.231 59.6444 168.382V168.382Z" fill="#7C8370"/>
<path d="M73.4498 162.649C74.1487 161.929 74.8618 161.23 75.5749 160.524C75.582 160.546 75.5891 160.567 75.6034 160.581C74.9758 161.237 74.3412 161.893 73.7065 162.542C73.3999 162.813 73.0862 163.084 72.7724 163.355C73.0006 163.12 73.2288 162.884 73.457 162.649H73.4498Z" fill="#7C8370"/>
<path d="M61.584 158.392C61.6125 157.793 61.6624 157.208 61.7409 156.616C61.8407 156.017 61.969 155.433 62.1259 154.841C62.3256 154.22 62.5395 153.614 62.7891 153.015C63.1813 152.181 63.6163 151.375 64.0941 150.584C64.5005 149.956 64.9284 149.35 65.4061 148.772C65.7484 148.409 66.0978 148.066 66.4687 147.731C67.3529 146.975 68.2585 146.234 69.1927 145.535C69.6633 146.597 70.1268 147.653 70.5761 148.687C70.4406 148.865 70.3051 149.036 70.1767 149.207L69.756 149.756C69.756 149.756 69.7489 149.771 69.7417 149.771C69.2854 150.327 68.8361 150.89 68.3797 151.446C67.4955 152.545 66.6184 153.65 65.727 154.734C65.8055 154.641 65.8768 154.548 65.9552 154.456C65.0425 155.554 64.1155 156.631 63.1956 157.729C62.7249 158.292 62.2329 158.848 61.805 159.447C61.7409 159.533 61.6767 159.626 61.6125 159.718C61.584 159.276 61.5768 158.827 61.5768 158.385L61.584 158.392Z" fill="#7C8370"/>
<path d="M52.0143 139.623C51.6863 135.716 47.0583 121.333 50.6309 119.65C55.0093 117.66 61.3843 128.727 66.8965 140.493C66.7111 140.622 66.5329 140.75 66.3546 140.886C65.5845 141.456 64.8357 142.055 64.0941 142.668C63.2455 143.367 62.3827 144.066 61.6411 144.886C60.1008 146.605 58.8743 148.601 57.9259 150.712C56.9988 152.78 56.4284 155.019 56.2786 157.28C54.667 151.425 53.2765 145.514 52.0143 139.616V139.623Z" fill="#7C8370"/>
<path d="M61.7124 156.795C61.7124 156.83 61.6981 156.873 61.691 156.909C61.691 156.873 61.7052 156.83 61.7124 156.795Z" fill="#7C8370"/>
<path d="M138.848 179.307C136.345 175.014 143.126 172.675 145.436 170.037C153.651 163.027 164.091 158.428 175.044 159.911C178.41 160.217 182.325 160.039 185.056 162.321C186.967 164.574 184.107 166.942 181.875 165.387C152.546 160.018 145.144 185.789 138.848 179.307V179.307Z" fill="#7C8370"/>
<path d="M171.079 157.622C171.079 157.522 171.158 157.444 171.258 157.444C171.357 157.444 171.436 157.522 171.436 157.622C171.436 157.722 171.357 157.8 171.258 157.8C171.158 157.8 171.079 157.722 171.079 157.622Z" fill="#7C8370"/>
<path d="M149.865 165.395C147.233 159.476 161.267 158.035 165.039 157.615C170.502 157.515 176.534 157.365 181.669 159.034C183.394 160.895 181.177 163.227 179.009 162.485C174.844 162.264 170.666 162.335 166.523 162.849C163.556 163.098 160.64 163.733 157.83 164.724C155.249 165.337 151.918 168.582 149.865 165.387V165.395Z" fill="#7C8370"/>
<path d="M120.992 159.561C120.564 158.998 121.049 158.463 121.519 158.142C122.625 157.073 123.602 155.868 124.7 154.784C129.798 149.6 135.425 144.886 139.91 139.131C140.295 138.675 140.958 138.561 141.443 138.932C141.914 139.295 142.007 139.994 141.636 140.465C140.559 141.877 139.397 143.225 138.184 144.529C134.676 148.209 130.875 151.603 127.11 155.012C126.112 155.91 125.142 156.837 124.179 157.779C123.381 158.342 121.969 160.624 120.977 159.554L120.992 159.561Z" fill="#47443E"/>
<path d="M157.395 139.288C157.338 135.316 157.609 131.344 157.88 127.38C158.429 121.696 158.885 115.813 161.153 110.515C161.289 110.187 161.681 110.03 162.002 110.173C162.793 110.544 162.13 111.428 161.98 111.97C159.941 119.65 160.048 127.693 159.841 135.566C159.834 136.807 159.841 138.047 159.82 139.295C159.812 139.959 159.278 140.508 158.607 140.508C157.937 140.508 157.409 139.959 157.395 139.295V139.288Z" fill="#47443E"/>
<path d="M175.08 136.728C174.274 136.507 173.832 135.673 174.024 134.874C174.709 132.086 175.579 129.333 176.463 126.809C179.622 118.323 183.323 109.795 184.999 100.874C185.434 98.749 185.79 96.6097 186.175 94.4704C186.347 93.5006 186.496 92.5094 186.746 91.561C186.867 91.1046 187.16 90.6696 187.666 90.6055C189.149 90.5555 188.65 92.0816 188.564 93.0157C188.072 97.2871 187.495 101.544 186.489 105.73C185.027 112.747 182.182 119.593 179.729 126.239C178.645 129.341 177.768 132.5 176.92 135.673C176.706 136.472 175.843 136.942 175.065 136.728H175.08Z" fill="#47443E"/>
<path d="M207.169 126.638C206.613 126.31 206.349 125.504 206.727 124.941C207.996 123.044 209.351 121.211 210.677 119.357C214.942 113.218 219.348 107.185 223.363 100.924C224.247 99.4977 225.167 98.0929 226.023 96.6525C226.28 96.2104 226.872 96.0535 227.321 96.3102C227.77 96.5669 227.92 97.1659 227.663 97.608C226.772 99.1341 225.888 100.674 224.975 102.186C221.573 107.77 217.78 113.089 214.164 118.53C212.945 120.313 211.704 122.081 210.478 123.857C209.529 124.827 208.902 127.458 207.176 126.638H207.169Z" fill="#47443E"/>
<path d="M221.367 183.678C215.926 181.717 210.649 179.293 205.194 177.367C197.863 174.921 190.454 172.711 183.073 170.429C178.11 168.91 173.147 167.434 168.177 165.944C163.927 164.738 159.363 163.227 154.956 163.918C154.265 164.154 153.323 164.189 153.095 163.319C152.945 162.792 153.266 162.171 153.822 162.036C158.358 160.838 163.121 161.986 167.542 163.184C175.279 165.352 182.981 167.648 190.689 169.908C195.581 171.349 200.466 172.825 205.322 174.394C211.148 176.333 216.76 178.836 222.515 180.976C224.247 181.753 223.192 184.37 221.374 183.678H221.367Z" fill="#47443E"/>
<path d="M123.915 237.666C116.742 231.42 110.131 224.56 102.601 218.72C96.7394 214.341 90.9491 209.87 85.8434 204.622C85.3799 204.18 85.4013 203.402 85.8434 202.953C86.7205 202.112 87.619 203.003 88.2608 203.659C92.8745 207.838 97.6237 211.553 102.637 215.197C109.318 220.246 115.408 225.929 121.469 231.669C122.881 233.003 124.329 234.279 125.769 235.556C127.003 236.739 125.263 238.743 123.915 237.666V237.666Z" fill="#47443E"/>
<path d="M37.3603 203.26C35.8913 202.746 36.8825 200.928 36.5902 199.794C36.3335 196.428 35.2638 193.205 34.237 190.01C33.0675 186.509 32.169 182.929 31.1493 179.385C30.7286 177.895 30.3435 176.405 29.9442 174.907C29.7659 174.244 30.1581 173.531 30.8284 173.346C31.4987 173.16 32.2047 173.567 32.3901 174.23C33.1032 176.768 33.8662 179.293 34.565 181.831C35.6632 186.388 37.3888 190.823 38.4086 195.38C38.6296 196.935 40.1485 203.78 37.3603 203.253V203.26Z" fill="#47443E"/>
<path d="M57.9615 141.47C56.0647 136.807 54.6884 131.901 53.9468 126.916C53.7471 126.203 54.1037 125.383 54.8881 125.283C56.3927 125.133 56.2216 126.966 56.4783 127.95C57.3554 132.236 58.6817 136.414 60.3432 140.465C60.9707 142.027 58.6461 143.032 57.9544 141.47H57.9615Z" fill="#47443E"/>
<path d="M83.7397 211.189C80.8374 209.378 84.9662 205.328 86.7918 208.144C87.8257 209.906 85.4939 212.273 83.7397 211.189Z" fill="#47443E"/>
<path d="M35.2923 211.246C28.4538 197.327 20.9092 182.744 19.7469 167.085C19.4331 163.341 19.1123 147.774 25.5443 150.683C26.2717 151.411 26.3359 152.737 25.5443 153.457C20.2247 167.035 29.4664 189.811 35.8842 202.233C35.877 202.219 35.8699 202.204 35.8628 202.183C35.8628 202.183 35.8628 202.176 35.82 202.097C37.0536 204.55 38.273 207.011 39.307 209.556C40.3909 212.145 36.4404 213.849 35.2994 211.254L35.2923 211.246Z" fill="#47443E"/>
<path d="M42.9866 216.58C41.5889 194.417 37.0037 171.42 22.7062 153.857C20.788 151.496 23.9185 148.487 25.5729 151.354C34.0943 160.845 39.4853 172.39 42.466 184.719C45.6321 194.938 46.388 205.677 47.3008 216.288C47.3792 218.876 43.2789 219.197 42.9937 216.58H42.9866Z" fill="#47443E"/>
<path d="M139.418 250.802C138.577 249.889 137.814 248.841 136.979 247.935C137.029 247.992 137.086 248.056 137.136 248.113C137.136 248.113 137.143 248.12 137.15 248.127C135.225 245.953 133.1 243.97 131.082 241.881C125.049 235.648 119.715 228.803 113.74 222.542C107.778 216.538 101.182 211.196 95.2919 205.114C93.9655 203.78 92.5037 202.54 91.8762 200.7C91.3342 198.653 94.3292 197.755 95.028 199.687C96.1618 201.463 98.187 202.525 99.6132 204.073C104.02 208.166 108.484 211.831 112.898 215.853C120.863 223.012 127.395 231.562 134.918 239.15C137.314 241.574 139.71 243.849 141.835 246.416C143.083 247.693 144.203 249.568 142.47 250.987C141.572 251.679 140.224 251.615 139.425 250.794L139.418 250.802Z" fill="#47443E"/>
<path d="M138.848 254.716C129.406 250.923 121.263 244.419 112.927 238.822C100.476 230.97 88.3748 221.265 82.6844 207.253C81.7146 204.943 85.3157 203.381 86.2784 205.734C86.7775 207.139 87.6261 208.423 88.4462 209.635C97.4383 224.973 113.775 232.953 127.723 242.972C131.709 245.653 135.91 248.056 140.309 249.974C141.964 250.452 144.353 250.573 144.324 252.848C144.224 255.765 140.837 255.537 138.84 254.709L138.848 254.716Z" fill="#47443E"/>
<path d="M53.8327 151.026C51.287 142.433 49.6825 133.562 48.5843 124.67C47.4862 102.871 66.7183 131.587 70.6545 138.511C70.4263 138.589 70.1982 138.675 69.97 138.768C68.6935 139.274 67.4955 140.044 66.3974 140.857C62.4611 134.382 58.318 128.036 53.0269 122.609C54.0609 131.865 55.8222 140.978 57.8189 149.935C57.9116 150.248 57.9258 150.534 57.8902 150.798C57.769 151.076 57.6477 151.361 57.5408 151.646C57.1272 152.188 56.4284 152.502 55.7367 152.502C54.9166 152.502 54.1179 152.06 53.8327 151.033V151.026Z" fill="#47443E"/>
<path d="M149.872 150.063C149.18 137.099 151.683 124.099 156.404 112.048C157.302 109.752 158.015 107.149 159.834 105.388C160.711 104.069 162.815 104.932 162.458 106.507C162.087 107.556 161.417 108.497 161.124 109.588C157.809 119.186 154.864 128.856 154.364 138.975C154.079 142.569 154.25 146.177 154.086 149.771C154.086 150.805 153.295 151.746 152.254 151.874C151.163 152.024 149.95 151.211 149.865 150.063H149.872Z" fill="#47443E"/>
<path d="M160.148 158.827C157.623 158.256 158.343 156.039 158.736 154.32C159.171 152.195 159.584 150.056 159.912 147.917C160.868 141.813 160.854 135.751 160.946 129.612C161.046 121.468 161.146 113.31 160.682 105.174C160.554 104.332 161.189 103.527 162.016 103.413C164.391 103.227 164.005 106.878 164.355 108.468C164.797 113.317 164.975 118.195 165.054 123.065C165.168 133.305 165.432 143.652 163.242 153.714C162.743 155.611 162.936 159.084 160.148 158.82V158.827Z" fill="#47443E"/>
<path d="M164.968 148.972C162.95 148.245 164.034 145.464 164.02 143.852C164.234 140.821 164.54 137.798 165.203 134.824C166.259 128.763 168.69 123.13 171.557 117.724C175.557 109.631 179.522 101.516 183.152 93.251C184.628 89.9779 185.84 86.5908 186.995 83.2036C188.051 79.9875 191.331 80.4938 192.18 83.5815C194.504 91.0048 193.028 99.4692 191.666 106.807C189.413 118.787 184.507 130.332 180.264 141.599C179.615 143.381 179.301 146.134 176.727 145.542C175.572 145.221 174.852 143.973 175.18 142.818C177.397 135.637 180.677 128.735 183.066 121.632C183.059 121.653 183.052 121.675 183.045 121.703C186.553 111 189.698 100.111 189.163 88.837C185.484 99.1055 180.542 108.889 175.771 118.673C174.131 121.982 172.349 125.233 171.086 128.706C169.71 132.878 168.919 136.693 168.377 140.886C168.006 142.946 168.034 149.485 164.975 148.986L164.968 148.972Z" fill="#47443E"/>
<path d="M204.003 136.949C201.792 134.361 206.178 132.307 207.518 130.467C208.738 129.191 209.907 127.857 211.07 126.531C214.072 123.144 216.967 119.614 218.985 115.542C221.659 109.866 223.477 104.275 224.682 98.2569C220.632 104.903 214.892 110.216 209.715 115.949C206.285 119.821 203.254 124.035 199.967 128.029C199.075 129.07 198.163 130.089 197.228 131.088C196.337 132.15 194.911 133.655 193.563 132.343C192.465 131.123 193.335 129.99 194.283 129.155C198.377 124.313 201.764 118.922 205.928 114.138C208.923 110.586 212.111 107.499 215.163 104.062C218.036 100.803 220.361 97.4226 222.629 93.8287C223.862 91.4683 226.715 89.7997 228.576 92.5522C230.644 96.6525 227.335 105.438 226.023 109.766C223.755 117.083 219.662 123.607 214.457 129.184C212.474 131.444 210.471 133.676 208.288 135.744C207.169 136.935 205.536 138.447 203.996 136.949H204.003Z" fill="#47443E"/>
<path d="M200.537 137.199C200.181 136.357 200.58 135.288 201.45 134.953C203.126 134.297 204.823 133.983 206.42 133.234C207.269 132.828 207.939 132.157 208.602 131.508C209.971 130.168 212.018 132.214 210.677 133.584C209.308 135.167 207.611 136.372 205.629 137.071C204.053 137.527 201.593 139.345 200.537 137.206V137.199Z" fill="#47443E"/>
<path d="M227.506 191.536C217.994 191.558 209.551 186.623 200.252 185.418C195.153 184.256 190.069 183.521 184.885 182.958C181.776 182.53 182.403 177.695 185.548 178.13C194.248 179.129 202.847 180.519 211.184 182.951C217.48 185.161 224.625 187.743 231.271 186.31C219.933 177.874 206.377 172.312 194.105 165.216C187.124 161.629 179.701 159.44 171.928 158.913C169.054 158.456 166.394 159.176 163.742 159.911C160.747 159.262 161.809 155.654 164.369 155.147C180.285 151.853 195.724 160.424 209.137 168.033C215.441 172.012 233.411 178.765 235.949 184.976C237.254 190.018 231.628 192.086 227.513 191.529L227.506 191.536ZM165.624 159.205C165.667 159.155 165.71 159.105 165.752 159.062C165.752 159.062 165.745 159.077 165.738 159.084C165.788 159.005 165.838 158.934 165.888 158.855C165.995 158.663 166.08 158.456 166.123 158.242C166.031 158.606 165.859 158.934 165.624 159.205V159.205Z" fill="#47443E"/>
<path d="M116.078 164.945C114.538 162.785 116.977 161.209 118.76 160.439C120.657 159.533 122.076 158.784 123.787 157.729C132.779 152.081 143.369 144.045 146.007 133.313C139.418 137.056 133.164 141.499 128.151 147.161C125.826 149.785 123.759 152.616 121.74 155.475C120.592 156.887 119.081 160.153 116.934 158.371C115.052 156.602 119.031 152.431 119.943 150.655C125.855 141.641 134.433 134.753 143.796 129.562C149.059 126.474 151.676 130.375 150.086 135.502C148.467 141.335 144.709 146.341 140.466 150.555C135.382 155.49 129.663 159.775 123.438 163.17C122.532 163.647 121.605 164.09 120.685 164.546C119.238 165.402 117.455 166.671 116.078 164.945V164.945Z" fill="#47443E"/>
<path d="M22.5992 222.913C21.2729 222.577 20.2959 221.536 20.2318 220.16C20.5526 217.158 24.9809 217.422 26.9847 215.803C35.1568 211.703 43.393 207.745 51.8217 204.194C83.1407 190.823 113.968 175.791 144.11 160.082C162.757 150.42 180.086 138.468 198.647 128.642C202.997 126.089 207.105 132.878 202.634 135.459C197.235 138.682 191.759 141.77 186.275 144.836C149.244 166.913 110.552 186.024 71.3105 203.823C60.2219 208.758 48.8909 213.129 37.7809 218.014C32.8321 219.739 28.0045 223.34 22.6063 222.913H22.5992Z" fill="#52504A"/>
<path d="M41.7671 231.085C40.6761 229.223 41.2537 226.492 43.2432 225.458C48.3133 222.884 53.9467 219.347 58.4606 216.238C76.4163 204.472 93.3736 191.223 111.614 179.885C142.356 161.85 173.304 144.066 205.243 128.278C208.588 126.317 211.768 131.573 208.31 133.519C206.213 134.603 204.174 135.78 202.134 136.956C171.136 153.614 139.689 171.064 109.889 189.611C109.39 189.647 108.919 189.811 108.463 190.046C108.156 190.203 107.892 190.417 107.621 190.624C107.179 190.809 106.765 191.016 106.409 191.365C106.159 191.608 105.96 191.879 105.76 192.157C105.66 192.292 105.56 192.428 105.453 192.563C104.619 193.141 103.778 193.719 102.943 194.303C101.852 194.567 100.868 195.209 100.176 196.1C100.105 196.186 100.041 196.286 99.9768 196.378C90.9919 202.696 82.121 209.178 73.186 215.568C68.0802 218.235 52.7701 232.782 45.1329 232.782C43.7067 232.782 42.5515 232.275 41.7743 231.085H41.7671Z" fill="#52504A"/>
<path d="M26.892 226.342C26.564 225.779 26.728 224.938 27.3413 224.631C28.6106 223.989 29.8585 223.305 31.1135 222.634C35.0427 220.602 38.9718 218.563 42.8154 216.373C56.578 208.665 70.7686 201.762 84.5027 194.011C86.2783 193.034 87.8685 195.63 86.0858 196.721C77.6713 201.313 69.3709 206.126 60.8423 210.498C53.4048 214.149 46.2952 217.914 38.9718 221.686C36.098 223.126 33.1815 224.496 30.3077 225.929C29.2523 226.364 27.7834 227.704 26.892 226.335V226.342Z" fill="#52504A"/>
<path d="M36.7683 225.651C36.476 225.159 36.64 224.474 37.1534 224.189C38.3871 223.511 39.5993 222.777 40.8187 222.078C44.6694 219.889 48.4845 217.643 52.2852 215.368C65.7413 207.289 79.1831 199.174 92.5393 190.937C94.4147 189.882 96.0976 192.642 94.2222 193.811C88.9595 197.07 83.6898 200.329 78.4486 203.616C67.7165 210.234 56.7706 216.616 45.5465 222.363C43.7139 223.283 41.8598 224.16 40.0486 225.059C39.036 225.423 37.6668 226.92 36.7755 225.644L36.7683 225.651Z" fill="#52504A"/>
<path d="M32.5326 236.618C31.905 235.991 31.8551 234.857 32.5326 234.236C35.3279 231.626 38.2516 229.181 41.2893 226.863C47.8783 221.807 55.0092 216.844 61.7836 212.259C68.5152 207.645 75.475 203.388 82.3349 198.967C85.551 196.885 88.7599 194.795 91.9759 192.713C92.8245 192.164 94.0225 192.535 94.5145 193.383C95.0422 194.289 94.6928 195.373 93.8513 195.922C84.0178 202.183 74.8474 208.565 65.1993 214.855C55.323 221.451 45.575 227.647 36.4902 235.22C35.3849 236.126 34.0015 238.009 32.5397 236.618H32.5326Z" fill="#52504A"/>
<path d="M30.2435 231.591C29.9155 231.163 29.9725 230.486 30.4289 230.165C31.4843 229.416 32.5254 228.646 33.5808 227.904C37.1106 225.437 40.7402 223.126 44.3627 220.802C53.5973 214.783 63.0315 209.086 72.4372 203.338C75.6176 201.377 78.8051 199.416 81.9997 197.469C83.6042 196.571 85.0518 198.931 83.4402 199.93C69.1569 208.601 55.1803 217.757 40.7545 226.178C38.0233 227.804 35.1282 229.459 32.5183 231.191C31.8622 231.669 30.9423 232.461 30.2506 231.591H30.2435Z" fill="#52504A"/>
<path d="M26.4998 231.006C23.6403 226.856 55.9434 210.227 60.336 206.882C62.3826 205.656 64.2866 208.879 62.2043 210.077C58.6032 212.223 55.0734 214.491 51.565 216.787C45.4538 220.673 38.8862 224.631 32.9533 228.61C30.9638 229.473 28.6462 233.181 26.4927 231.006H26.4998Z" fill="#52504A"/>
<path d="M19.918 227.163C19.4473 226.549 19.5757 225.672 20.1747 225.194C25.5015 220.93 31.2775 217.265 37.1463 213.792C50.1174 205.962 63.5806 198.988 76.8798 191.736C78.7909 190.681 80.4809 193.476 78.5769 194.638C66.2904 201.206 54.2534 208.223 42.031 214.912C35.0641 218.876 28.1399 222.606 21.8933 227.419C21.3014 227.897 20.3886 227.762 19.9251 227.163H19.918Z" fill="#52504A"/>
<path d="M29.1311 222.62C38.1161 218.627 46.552 213.564 55.3444 209.178C79.7749 196.949 103.585 183.55 127.509 170.358C142.449 161.907 157.994 154.67 173.44 147.211C177.754 145.043 182.075 142.839 186.382 140.629C186.781 140.422 187.202 140.344 187.644 140.465C188.978 140.786 189.284 142.804 188.037 143.453C181.975 146.562 175.878 149.607 169.838 152.758C159.634 158.321 148.795 163.54 138.448 168.611C120.143 177.895 102.173 187.85 83.9251 197.241C70.6188 204.051 57.0273 210.191 43.4928 216.509C38.7365 218.62 34.1655 221.137 29.4021 223.233C29.0313 223.412 28.7247 222.791 29.1382 222.613L29.1311 222.62Z" fill="#52504A"/>
<path d="M101.481 192.528C101.588 191.565 102.544 190.888 103.478 191.016C104.733 191.244 104.976 192.135 104.983 193.162C104.933 193.226 104.883 193.291 104.826 193.348C104.462 193.533 104.106 193.733 103.785 193.997C103.706 194.061 103.628 194.132 103.549 194.196C103.507 194.196 103.464 194.203 103.421 194.211C102.651 194.318 101.924 194.603 101.289 195.038C101.317 194.182 101.375 193.341 101.481 192.528Z" fill="#7C8370"/>
<path d="M114.467 170.493C110.552 153.693 109.354 136.25 104.569 119.692C102.523 112.127 100.383 104.582 98.1014 97.0803C95.7411 89.2363 93.4235 81.3067 92.8245 73.1061C92.5892 69.9471 92.4109 66.7739 92.6462 63.6077C92.7603 62.2457 92.903 60.5486 94.7356 60.6983C95.6983 60.8267 96.2901 61.7394 96.1689 62.6736C96.119 64.8271 96.4827 66.9664 96.6752 69.0985C97.5951 79.8662 101.41 89.5714 104.533 99.7472C106.887 107.22 108.955 114.786 111.03 122.345C114.403 135.395 115.914 149.443 118.631 162.499C119.095 164.781 119.623 167.049 120.058 169.338C120.528 172.768 115.458 173.895 114.474 170.486L114.467 170.493Z" fill="#52504A"/>
<path d="M109.81 170.329C107.272 157.957 103.25 145.977 100.44 133.669C95.9692 115.036 93.345 95.975 91.5766 76.914C91.5267 76.5575 91.7905 76.2223 92.1399 76.1724C92.4965 76.1225 92.8245 76.3792 92.8815 76.7358C92.9814 77.4488 93.1668 78.2261 93.2951 78.8536C94.8639 85.8419 96.8178 92.8017 98.1513 99.8399C100.176 110.173 102.209 120.077 104.897 130.168C107.828 143.303 112.984 155.939 114.781 169.302C115.173 172.369 110.68 173.345 109.817 170.322L109.81 170.329Z" fill="#52504A"/>
<path d="M164.683 149.386C164.611 149.264 164.654 149.1 164.776 149.029C167.007 147.867 168.897 146.391 171.058 145.171C171.322 145.014 171.685 145.114 171.835 145.378C172.199 146.262 170.808 146.526 170.295 146.975C168.569 147.888 166.758 148.637 165.004 149.5C164.89 149.557 164.74 149.5 164.676 149.393L164.683 149.386Z" fill="#52504A"/>
<path d="M147.64 157.451C147.64 157.337 147.74 157.237 147.854 157.237C147.968 157.237 148.068 157.337 148.068 157.451C148.068 157.565 147.968 157.665 147.854 157.665C147.74 157.665 147.64 157.565 147.64 157.451Z" fill="#52504A"/>
<path d="M124.393 169.944C123.509 169.024 131.745 165.302 132.722 164.689C135.211 163.491 137.564 161.95 140.01 160.702C140.644 160.374 141.3 160.103 141.985 159.911C142.099 159.875 142.22 159.954 142.249 160.061C142.306 160.424 141.714 160.389 141.514 160.51C137.093 162.435 133.178 165.302 129.05 167.769C127.759 168.589 126.447 169.388 125.106 170.129C124.864 170.265 124.543 170.186 124.393 169.944V169.944Z" fill="#52504A"/>
<path d="M124.6 170.301C124.536 170.194 124.571 170.058 124.678 169.994C127.324 168.404 130.019 166.885 132.736 165.409C136.715 163.234 140.83 161.301 144.773 159.055C146.47 158.085 148.153 157.08 149.9 156.188C150.457 156.01 151.298 155.19 151.719 155.917C151.975 156.659 150.82 156.766 150.435 157.051C143.475 161.03 136.387 164.774 129.128 168.19C127.702 168.903 126.311 169.616 124.914 170.379C124.807 170.436 124.671 170.407 124.607 170.293L124.6 170.301Z" fill="#52504A"/>
<path d="M116.121 172.347C115.765 171.741 115.979 170.942 116.585 170.586C120.592 168.147 124.757 165.972 128.921 163.811C137.093 159.576 145.158 155.026 153.83 151.867C156.404 150.947 159.021 150.156 161.602 149.243C162.593 148.851 163.249 150.348 162.244 150.776C149.957 155.04 138.534 161.28 127.167 167.484C125.156 168.625 123.167 169.801 121.156 170.935C120.057 171.556 118.974 172.183 117.883 172.818C117.284 173.167 116.478 172.96 116.121 172.354V172.347Z" fill="#52504A"/>
<path d="M117.398 176.048C116.307 174.023 120 173.017 121.198 171.976C124.272 170.022 127.466 168.254 130.661 166.5C139.204 161.858 147.946 157.593 156.725 153.415C159.484 152.095 162.315 150.94 165.111 149.706C165.481 149.535 165.938 149.735 166.095 150.106C166.394 150.819 165.617 151.161 165.118 151.361C156.66 155.725 148.196 160.082 139.767 164.517C135.496 166.799 131.339 169.281 127.224 171.812C124.628 173.41 121.997 174.957 119.409 176.583C118.738 177.011 117.79 176.733 117.398 176.055V176.048Z" fill="#52504A"/>
<path d="M129.442 166.036C128.757 164.075 131.453 163.697 132.651 162.906C137.086 160.717 141.643 158.777 146.121 156.695C149.929 154.998 153.665 153.136 157.595 151.732C158.593 151.332 159.249 152.837 158.244 153.265C151.54 155.889 145.401 159.668 139.033 162.984C136.516 164.346 133.948 165.608 131.36 166.821C130.647 167.163 129.741 166.749 129.435 166.043L129.442 166.036Z" fill="#52504A"/>
<path d="M105.881 181.86C104.762 181.411 104.384 179.927 105.125 178.979C105.717 178.216 106.544 177.681 107.272 177.054C109.782 174.65 113.026 173.167 116 171.427C119.273 169.616 122.589 167.883 125.698 166.329C131.545 163.512 137.3 160.381 143.418 158.178C145.501 157.643 146.385 160.717 144.295 161.366C136.48 165.095 128.871 169.302 121.362 173.631C116.478 176.34 112.135 180.12 106.83 181.988C106.509 182.024 106.195 181.988 105.881 181.853V181.86Z" fill="#52504A"/>
<path d="M102.979 128.963C101.139 120.933 99.0925 112.954 97.8589 104.81C97.0103 98.7061 95.7767 92.5165 96.0904 86.334C96.4826 84.5441 98.9856 85.2572 98.4579 87.0185C98.8073 98.2426 101.938 109.424 104.077 120.256C104.612 122.923 105.204 125.533 105.803 128.178C105.981 128.955 105.575 129.761 104.783 129.982C104.041 130.189 103.157 129.74 102.979 128.963V128.963Z" fill="#52504A"/>
<path d="M110.017 154.506C108.505 145.913 107.257 137.099 105.575 128.556C103.435 118.38 100.654 108.333 97.0317 98.592C96.775 97.6151 95.9834 96.6239 96.1688 95.6113C96.8605 94.9053 97.4025 96.3173 97.7448 96.7808C102.922 106.45 105.796 117.232 108.27 127.857C110.181 136.564 111.379 145.335 112.648 154.142C112.848 155.839 110.317 156.253 110.017 154.506V154.506Z" fill="#52504A"/>
<path d="M112.62 161.48C110.031 143.581 103.671 126.417 101.56 108.376C101.417 107.285 103.1 106.999 103.271 108.14C104.384 115.164 105.361 122.217 106.737 129.198C108.177 136.094 109.646 142.889 110.908 149.799C111.679 153.557 112.52 157.529 113.048 161.423C113.083 161.701 112.663 161.751 112.627 161.48H112.62Z" fill="#52504A"/>
<path d="M107.165 143.852C104.74 142.625 99.8484 132.984 105.304 133.255C105.496 130.688 102.537 124.577 106.33 124.014C107.35 124.014 108.199 124.848 108.234 125.861C108.356 129.612 114.873 145.578 107.165 143.852Z" fill="#52504A"/>
<path d="M113.105 179.392C113.212 176.069 112.399 172.796 112.171 169.495C111.964 167.534 114.802 167.149 115.137 169.088C115.708 172.447 115.914 175.905 115.572 179.293C115.572 179.999 115.073 180.626 114.331 180.626C113.69 180.626 113.055 180.063 113.098 179.392H113.105Z" fill="#52504A"/>
<path d="M95.249 79.7022C95.1349 79.6879 95.0422 79.5739 95.0636 79.4598C95.2561 78.3331 95.4273 77.1993 95.5627 76.0654C95.5984 75.7873 96.0263 75.8515 95.9835 76.1225C95.8551 77.2563 95.6768 78.3901 95.4843 79.5168C95.4629 79.6309 95.3559 79.7165 95.2418 79.7022H95.249Z" fill="#52504A"/>
<path d="M88.9667 74.2827C87.7758 73.263 87.5476 70.8028 89.473 70.5247C89.473 70.5247 89.473 70.5247 89.473 70.5176C90.4356 70.3964 91.1844 71.1594 91.7762 71.8154C93.1953 73.6124 90.5782 75.9228 88.9667 74.2827V74.2827Z" fill="#7C8370"/>
<path d="M91.0631 75.3381C89.6227 74.8888 88.9167 73.3985 87.9469 72.3502C86.2569 69.8259 90.0791 67.8292 91.491 70.4249C95.4558 69.4622 94.6714 76.3721 91.056 75.331L91.0631 75.3381Z" fill="#7C8370"/>
<path d="M89.5799 75.3452C89.2091 74.4895 89.4016 73.4127 90.0719 72.7638C90.8278 70.0256 91.4981 67.2088 92.5321 64.5704C92.8102 63.7432 93.6303 63.2155 94.5002 63.4509C95.9193 63.9358 95.7838 65.1623 95.3559 66.3317C95.1278 67.5083 94.9923 68.7206 94.8996 69.9186C94.6928 71.7227 94.8853 73.6481 94.0866 75.3167C93.1739 77.1707 90.4285 77.3348 89.5799 75.3452V75.3452Z" fill="#7C8370"/>
<path d="M64.3008 201.042C43.8422 188.171 43.6782 153.514 63.5092 139.951C75.2824 134.846 91.5552 136.479 102.644 143.068C117.547 151.603 118.317 172.861 109.005 185.875C99.5988 199.038 79.8105 208.465 64.3008 201.035V201.042ZM76.5517 195.858C87.1554 194.688 98.0799 189.069 103.072 179.307C107.807 170.044 106.302 156.217 95.9763 151.518C85.337 144.401 72.2518 152.195 69.6918 144.886C50.3812 154.356 52.2067 195.615 76.5517 195.858Z" fill="#3B4246"/>
<path d="M180.827 175.214C200.266 201.292 173.989 234.657 144.089 228.845C121.526 222.584 110.652 188.427 127.687 171.356C132.201 166.806 138.37 164.339 144.638 163.433C145.971 163.241 147.034 163.619 147.797 164.303C148.752 165.159 149.237 166.5 149.173 167.805C149.159 168.204 149.087 168.596 148.959 168.974C148.56 170.208 147.583 171.242 145.957 171.534C145.886 171.548 145.814 171.563 145.75 171.57C145.565 171.584 145.379 171.606 145.194 171.62C145.016 171.634 144.844 171.655 144.673 171.684C144.659 171.684 144.652 171.684 144.645 171.684C144.502 171.698 144.367 171.72 144.231 171.741C144.11 171.762 143.996 171.777 143.875 171.798C143.782 171.812 143.682 171.834 143.597 171.848C143.454 171.877 143.311 171.905 143.169 171.934C143.04 171.962 142.919 171.983 142.791 172.019C142.741 172.033 142.684 172.041 142.627 172.055L142.563 172.069C142.456 172.098 142.349 172.119 142.249 172.147C142.113 172.183 141.978 172.219 141.849 172.262C141.657 172.319 141.464 172.376 141.279 172.44C141.144 172.483 141.008 172.525 140.88 172.575C140.559 172.689 140.245 172.818 139.931 172.946C139.817 172.996 139.703 173.046 139.589 173.096C139.446 173.16 139.311 173.224 139.175 173.288C138.847 173.445 138.526 173.616 138.22 173.795C138.127 173.845 138.027 173.902 137.942 173.959C137.885 173.994 137.828 174.023 137.778 174.059C137.721 174.094 137.664 174.123 137.614 174.158C137.507 174.23 137.4 174.294 137.293 174.365C137.293 174.365 137.279 174.372 137.279 174.379C137.257 174.394 137.229 174.408 137.207 174.429C137.207 174.429 137.2 174.429 137.193 174.436C137.086 174.508 136.979 174.579 136.879 174.658C136.779 174.729 136.68 174.8 136.587 174.871C136.587 174.871 136.587 174.871 136.58 174.871C136.444 174.971 136.309 175.078 136.18 175.178C136.066 175.271 135.952 175.364 135.845 175.456C135.781 175.506 135.724 175.556 135.667 175.613C135.603 175.663 135.553 175.713 135.489 175.77C135.396 175.848 135.303 175.934 135.211 176.02C134.961 176.255 134.719 176.497 134.49 176.747C134.419 176.818 134.348 176.897 134.284 176.968C134.198 177.061 134.12 177.153 134.041 177.246C133.963 177.339 133.884 177.431 133.806 177.524C133.742 177.603 133.677 177.681 133.613 177.76C133.613 177.76 133.599 177.774 133.599 177.781C133.521 177.874 133.449 177.966 133.385 178.059C133.271 178.209 133.157 178.366 133.043 178.523C132.907 178.708 132.779 178.9 132.651 179.093C132.594 179.186 132.529 179.278 132.472 179.371C132.137 179.906 131.831 180.455 131.545 181.018C131.495 181.111 131.453 181.204 131.41 181.296C131.374 181.375 131.331 181.46 131.296 181.539C131.246 181.646 131.196 181.753 131.146 181.867C131.139 181.888 131.125 181.91 131.117 181.931C131.075 182.031 131.032 182.124 130.989 182.223C130.797 182.68 130.611 183.15 130.454 183.628C130.411 183.742 130.376 183.864 130.34 183.985C130.305 184.099 130.262 184.213 130.226 184.327C130.105 184.712 129.998 185.104 129.898 185.497C129.862 185.639 129.827 185.789 129.791 185.939C129.77 186.024 129.748 186.11 129.734 186.195C129.706 186.309 129.684 186.424 129.663 186.538C129.656 186.566 129.648 186.602 129.641 186.638C129.62 186.737 129.599 186.844 129.577 186.951C129.549 187.08 129.527 187.201 129.506 187.329C129.37 188.128 129.271 188.934 129.206 189.747C129.199 189.868 129.192 189.989 129.178 190.11V190.132C129.171 190.246 129.164 190.36 129.156 190.474C129.156 190.552 129.149 190.624 129.142 190.702C129.142 190.781 129.135 190.859 129.135 190.93C129.135 190.945 129.135 190.959 129.135 190.973C129.135 191.094 129.128 191.216 129.128 191.33C129.128 191.508 129.128 191.686 129.128 191.857C129.128 192.086 129.128 192.307 129.135 192.535C129.135 192.763 129.149 192.984 129.164 193.212C129.164 193.362 129.178 193.512 129.192 193.661C129.199 193.811 129.213 193.961 129.221 194.111C129.228 194.203 129.235 194.303 129.249 194.396C129.263 194.51 129.271 194.624 129.285 194.738C129.313 195.038 129.349 195.337 129.385 195.63C129.435 195.965 129.484 196.307 129.542 196.642C129.57 196.785 129.591 196.935 129.62 197.077C129.634 197.148 129.648 197.22 129.656 197.291C129.663 197.327 129.67 197.37 129.684 197.405C129.698 197.498 129.72 197.591 129.741 197.683C129.805 197.983 129.87 198.275 129.941 198.575C129.976 198.717 130.012 198.867 130.055 199.017C130.091 199.159 130.133 199.309 130.169 199.452C130.411 200.315 130.69 201.163 131.01 201.997C131.089 202.204 131.167 202.404 131.253 202.604C131.26 202.625 131.267 202.646 131.281 202.668C131.36 202.846 131.431 203.031 131.517 203.21C131.524 203.224 131.531 203.245 131.538 203.26L131.674 203.552C131.724 203.652 131.766 203.752 131.816 203.852C131.873 203.98 131.937 204.101 132.002 204.229C132.023 204.265 132.037 204.308 132.059 204.344C132.123 204.479 132.194 204.607 132.266 204.736C132.344 204.878 132.415 205.021 132.494 205.157C132.579 205.306 132.665 205.456 132.75 205.606C132.822 205.791 132.893 205.969 132.971 206.155C133.043 206.333 133.121 206.511 133.2 206.69C133.25 206.811 133.307 206.932 133.364 207.053C133.406 207.146 133.449 207.246 133.492 207.339C133.542 207.446 133.592 207.545 133.642 207.652C133.692 207.759 133.749 207.866 133.799 207.966C133.87 208.109 133.941 208.244 134.013 208.373C134.412 209.121 134.84 209.834 135.296 210.505C135.382 210.626 135.46 210.747 135.546 210.861C135.589 210.918 135.631 210.975 135.674 211.04C135.753 211.139 135.824 211.246 135.902 211.346C136.152 211.681 136.409 212.002 136.672 212.316C136.672 212.316 136.672 212.316 136.68 212.323C137.008 212.708 137.343 213.072 137.685 213.421C138.056 213.799 138.441 214.156 138.833 214.491C139.432 215.004 140.052 215.475 140.694 215.903C140.844 216.003 140.987 216.095 141.136 216.188C141.942 216.694 142.776 217.129 143.632 217.5C154.207 222.085 168.327 216.887 174.809 205.527C176.221 202.853 176.934 199.887 177.033 196.87C177.076 195.63 177.019 194.382 176.862 193.141C176.798 192.649 176.727 192.157 176.634 191.672C176.52 191.037 176.37 190.41 176.206 189.789C175.828 188.377 175.329 187.001 174.723 185.675C174.217 184.562 173.625 183.493 172.962 182.48C172.477 181.731 171.956 181.018 171.393 180.341C170.63 179.414 169.796 178.551 168.904 177.774C168.705 177.596 168.498 177.424 168.291 177.26C168.212 177.196 168.141 177.132 168.056 177.075C167.963 176.997 167.87 176.925 167.77 176.861C167.635 176.761 167.499 176.654 167.357 176.554C167.243 176.469 167.129 176.39 167.007 176.312C166.9 176.233 166.786 176.162 166.679 176.091C166.58 176.027 166.48 175.963 166.38 175.898C166.287 175.841 166.187 175.784 166.095 175.727C165.952 175.642 165.802 175.556 165.66 175.47C165.581 175.428 165.51 175.385 165.431 175.342C165.424 175.342 165.417 175.335 165.41 175.328C165.317 175.278 165.225 175.228 165.132 175.178C165.053 175.135 164.968 175.093 164.889 175.057C164.882 175.057 164.868 175.043 164.861 175.043C164.775 175 164.697 174.957 164.604 174.914C164.29 174.765 163.97 174.622 163.642 174.486C163.57 174.458 163.492 174.422 163.421 174.401C163.335 174.365 163.242 174.33 163.15 174.301C163.135 174.294 163.121 174.287 163.114 174.287L163.071 174.272C162.971 174.23 162.864 174.194 162.764 174.158C162.515 174.073 162.258 173.987 162.001 173.916C161.902 173.887 161.802 173.859 161.702 173.83C161.588 173.795 161.474 173.766 161.36 173.745C161.253 173.716 161.146 173.688 161.039 173.666C160.967 173.652 160.896 173.631 160.825 173.616C160.696 173.588 160.561 173.559 160.426 173.531C160.34 173.517 160.247 173.495 160.162 173.481C160.147 173.481 160.14 173.481 160.133 173.481C160.048 173.467 159.955 173.452 159.869 173.438C159.827 173.431 159.791 173.424 159.748 173.417C159.663 173.403 159.57 173.388 159.477 173.381C159.392 173.367 159.299 173.353 159.213 173.345C158.942 173.31 158.664 173.281 158.386 173.267C158.251 173.253 158.108 173.246 157.972 173.239H157.958C157.851 173.231 157.744 173.224 157.63 173.224H157.58C157.431 173.224 157.274 173.217 157.117 173.217C157.067 173.217 157.024 173.217 156.974 173.217C156.874 173.217 156.767 173.217 156.668 173.21C156.582 173.21 156.489 173.196 156.404 173.189C156.34 173.181 156.275 173.174 156.204 173.16C156.14 173.153 156.083 173.146 156.026 173.132C155.94 173.117 155.855 173.103 155.769 173.082C155.705 173.067 155.641 173.053 155.576 173.032C155.477 173.003 155.37 172.975 155.27 172.939C155.199 172.918 155.127 172.889 155.056 172.861C154.963 172.825 154.871 172.782 154.778 172.739C154.707 172.704 154.635 172.675 154.564 172.632C154.493 172.597 154.421 172.554 154.357 172.511C154.293 172.468 154.222 172.426 154.157 172.383C154.122 172.361 154.086 172.333 154.05 172.311C153.958 172.247 153.872 172.176 153.787 172.105C153.722 172.048 153.658 171.991 153.594 171.934C153.551 171.891 153.509 171.848 153.466 171.805C153.38 171.72 153.302 171.634 153.223 171.541C153.188 171.499 153.145 171.449 153.109 171.399C153.038 171.313 152.967 171.213 152.902 171.121C152.902 171.121 152.895 171.113 152.888 171.106C152.838 171.042 152.795 170.971 152.753 170.9C152.703 170.821 152.66 170.743 152.61 170.657C152.532 170.515 152.46 170.379 152.396 170.229C152.368 170.158 152.332 170.08 152.303 170.001C152.011 169.252 151.868 168.432 151.897 167.626C151.897 167.441 151.911 167.256 151.933 167.077C152.182 164.881 153.63 162.863 156.375 162.549C160.825 162.043 165.175 163.077 169.118 165.074C173.753 167.427 177.832 171.106 180.848 175.164L180.827 175.214Z" fill="#3B4246"/>
<path d="M65.9408 178.316C65.3846 177.759 65.4131 176.875 65.9408 176.312C67.146 175.035 68.3939 173.766 69.8272 172.746C71.8738 171.292 74.3482 170.579 76.8226 170.308C78.4984 170.144 80.9158 170.051 80.9871 172.311C80.9871 173.388 80.0672 174.372 78.9619 174.337C68.7718 173.388 68.5935 180.455 65.948 178.316H65.9408Z" fill="#3B4246"/>
<path d="M69.706 169.823C68.0873 163.17 85.4582 161.48 89.9792 163.448C93.3165 164.389 91.9117 169.516 88.553 168.618C84.0819 167.398 79.076 166.764 74.769 168.867C73.193 169.573 71.2606 171.741 69.706 169.83V169.823Z" fill="#3B4246"/>
<path d="M68.0302 176.283C67.5168 176.07 67.2672 175.449 67.4811 174.936C69.6418 170.778 77.2362 169.559 81.5005 168.682C82.0639 168.596 82.5987 169.017 82.6771 169.573C82.8055 170.85 81.308 170.8 80.4309 170.999C77.0223 171.919 71.4531 172.668 69.378 175.741C69.1569 176.262 68.5365 176.512 68.0231 176.291L68.0302 176.283Z" fill="#3B4246"/>
<path d="M68.2014 182.109C67.0461 180.804 69.8129 179.221 70.6615 178.43C76.1951 174.515 83.2761 173.239 89.9435 173.78C91.3055 173.944 91.17 176.055 89.7938 176.034C83.1763 175.692 75.9883 176.711 70.7257 181.033C70.0197 181.632 69.2139 183.036 68.2014 182.109V182.109Z" fill="#3B4246"/>
<path d="M61.1061 188.506C59.9295 186.83 63.6732 185.632 64.7714 185.012C70.1125 182.837 76.0454 182.502 81.743 182.901C82.4703 182.965 82.9766 183.714 82.8839 184.406C82.6914 185.76 81.1939 185.575 80.2598 185.447C75.5034 185.176 70.797 185.347 66.2903 186.859C65.0994 187.286 63.9585 187.814 62.9102 188.527C62.3897 188.984 61.5696 189.119 61.1061 188.499V188.506Z" fill="#3B4246"/>
<path d="M96.832 157.886C93.2737 155.597 89.5014 153.407 85.3583 152.409C84.0248 152.138 82.6771 152.102 81.3222 152.16C80.6591 152.174 80.1028 151.589 80.1028 150.94C80.1028 150.291 80.6591 149.735 81.3222 149.721C85.4724 149.364 89.4729 150.755 93.1096 152.659C94.9138 153.543 96.6537 154.57 98.3009 155.718C98.8358 156.089 98.9499 156.88 98.629 157.422C98.2796 158.021 97.4238 158.285 96.832 157.893V157.886Z" fill="#3B4246"/>
<path d="M59.2877 174.893C59.5516 170.386 60.1577 165.901 60.9136 161.458C61.049 160.717 61.698 160.168 62.4752 160.274C63.1955 160.374 63.7944 161.087 63.659 161.836C62.8817 166.215 62.4895 170.657 62.0759 175.085C61.8762 176.768 59.2592 176.604 59.2877 174.893V174.893Z" fill="#3B4246"/>
<path d="M58.9312 168.882C58.2323 168.689 57.7189 167.89 57.9614 167.177C58.9454 164.232 60.1648 161.337 61.6124 158.584C61.9547 157.936 62.8461 157.743 63.4593 158.1C64.4648 158.684 64.1082 159.84 63.5877 160.631C63.6162 160.581 63.6376 160.531 63.6661 160.474C62.4467 162.927 61.5054 165.509 60.5713 168.083C60.336 168.725 59.5658 169.053 58.9312 168.882Z" fill="#3B4246"/>
<path d="M167.257 197.833C167.877 198.054 168.191 198.803 168.02 199.409C167.942 199.701 167.749 199.958 167.499 200.136C167.179 200.372 166.765 200.464 166.38 200.343C165.988 200.215 165.603 200.086 165.21 199.965C163.791 199.516 162.358 199.124 160.91 198.874C159.627 198.653 158.336 198.546 157.017 198.61C156.361 198.66 155.719 198.76 155.07 198.888C154.714 198.938 154.421 198.86 154.193 198.696C153.751 198.389 153.566 197.769 153.715 197.255C153.715 197.227 153.73 197.206 153.744 197.177C153.758 197.127 153.78 197.077 153.808 197.027C153.822 196.999 153.837 196.977 153.844 196.956C153.858 196.927 153.879 196.899 153.894 196.878C153.908 196.856 153.922 196.842 153.936 196.82C153.979 196.763 154.036 196.706 154.093 196.664C154.115 196.649 154.136 196.628 154.157 196.614C154.214 196.571 154.279 196.535 154.343 196.507C154.371 196.492 154.4 196.478 154.428 196.471C154.457 196.457 154.485 196.45 154.521 196.443C154.585 196.421 154.649 196.407 154.728 196.4C155.862 196.172 157.003 196.065 158.144 196.065C158.322 196.065 158.5 196.065 158.678 196.072C158.828 196.072 158.985 196.086 159.142 196.093C159.263 196.093 159.384 196.107 159.499 196.115C159.591 196.115 159.691 196.129 159.784 196.136C159.834 196.136 159.891 196.136 159.941 196.15C160.04 196.157 160.14 196.164 160.233 196.179C160.347 196.193 160.468 196.207 160.582 196.214C161.074 196.271 161.559 196.343 162.044 196.435C162.208 196.464 162.372 196.492 162.529 196.528C162.672 196.557 162.822 196.585 162.964 196.614C163.157 196.656 163.349 196.699 163.535 196.742C163.684 196.778 163.827 196.806 163.97 196.849C164.29 196.927 164.604 197.013 164.925 197.106C165.082 197.148 165.239 197.191 165.396 197.248C165.553 197.291 165.71 197.341 165.866 197.391C166.323 197.534 166.786 197.683 167.236 197.84L167.257 197.833Z" fill="#3B4246"/>
<path d="M176.185 189.818C176.755 190.117 176.976 190.88 176.734 191.458C176.698 191.544 176.656 191.622 176.606 191.693C176.556 191.765 176.492 191.836 176.427 191.893C176.399 191.922 176.363 191.95 176.328 191.979C176.192 192.078 176.035 192.157 175.878 192.207C175.85 192.221 175.828 192.221 175.8 192.228C175.757 192.242 175.714 192.242 175.671 192.25C175.622 192.257 175.564 192.264 175.515 192.264C175.343 192.264 175.179 192.228 175.015 192.157C174.673 192 174.324 191.85 173.974 191.693C173.197 191.351 172.413 191.009 171.628 190.674C171.143 190.467 170.658 190.26 170.166 190.06C169.375 189.732 168.583 189.419 167.785 189.119C167.564 189.034 167.343 188.948 167.121 188.869C166.9 188.784 166.679 188.705 166.458 188.627C166.237 188.549 166.016 188.463 165.795 188.392C165.574 188.313 165.353 188.235 165.125 188.164C164.676 188.014 164.233 187.871 163.777 187.729C163.556 187.657 163.328 187.586 163.1 187.522C162.871 187.458 162.65 187.386 162.422 187.329C162.258 187.279 162.094 187.237 161.937 187.194C161.374 187.044 160.811 186.901 160.247 186.773C160.062 186.73 159.876 186.687 159.691 186.652C159.484 186.609 159.277 186.566 159.064 186.523C158.9 186.488 158.736 186.459 158.564 186.424C158.415 186.395 158.258 186.367 158.108 186.345C157.716 186.274 157.316 186.21 156.917 186.153C155.348 185.91 155.655 183.578 157.245 183.742C157.516 183.778 157.787 183.814 158.058 183.856C158.493 183.921 158.921 183.992 159.349 184.07C159.613 184.12 159.869 184.17 160.126 184.22C160.333 184.263 160.533 184.306 160.739 184.348C160.739 184.348 160.739 184.348 160.746 184.348C160.975 184.398 161.21 184.448 161.438 184.505C161.666 184.555 161.902 184.612 162.13 184.669C162.358 184.726 162.586 184.783 162.814 184.848C163.271 184.969 163.72 185.09 164.176 185.218C165.175 185.511 166.173 185.825 167.157 186.16C167.528 186.281 167.899 186.409 168.262 186.545C169.054 186.823 169.838 187.108 170.623 187.408C171.086 187.579 171.543 187.75 172.006 187.928C172.27 188.028 172.534 188.135 172.798 188.235C173.311 188.449 173.825 188.67 174.331 188.912C174.944 189.198 175.55 189.497 176.149 189.811C176.149 189.811 176.156 189.811 176.163 189.818H176.185Z" fill="#3B4246"/>
<path d="M166.294 182.587C166.943 182.872 167.264 183.628 166.986 184.291C166.708 184.969 165.931 185.233 165.282 184.983C161.082 183.436 156.668 181.945 152.125 182.109C150.521 182.081 150.506 179.706 152.125 179.656C156.974 179.521 161.837 180.719 166.294 182.587V182.587Z" fill="#3B4246"/>
<path d="M169.617 174.765C171.129 174.529 171.436 177.374 171.35 180.369C171.272 183.015 170.894 185.782 170.773 186.616C170.73 186.887 170.687 187.151 170.637 187.415C170.494 188.299 170.33 189.183 170.166 190.067C170.109 190.388 170.045 190.702 169.981 191.023C169.974 191.073 169.96 191.123 169.952 191.173C169.888 191.494 169.824 191.822 169.753 192.143C169.66 192.592 169.56 193.048 169.468 193.497C169.339 194.082 169.211 194.66 169.075 195.245C168.997 195.587 168.919 195.929 168.833 196.271C168.79 196.45 168.747 196.628 168.705 196.806C168.619 197.148 168.541 197.498 168.448 197.84C168.348 198.261 168.234 198.682 168.127 199.102C168.041 199.43 167.956 199.758 167.87 200.086C167.835 200.229 167.792 200.379 167.756 200.521C167.585 201.156 167.414 201.784 167.236 202.418C167.179 202.625 167.122 202.825 167.057 203.031C166.965 203.36 166.865 203.695 166.765 204.023C166.651 204.429 166.523 204.836 166.401 205.242C166.28 205.649 166.159 206.055 166.03 206.461C165.824 207.139 165.111 207.56 164.44 207.367C163.777 207.189 163.328 206.447 163.535 205.777C163.642 205.42 163.749 205.064 163.856 204.714C164.176 203.645 164.49 202.575 164.783 201.505C164.925 200.999 165.068 200.493 165.203 199.979C165.282 199.687 165.36 199.388 165.439 199.095C165.588 198.532 165.731 197.969 165.874 197.398C166.023 196.799 166.173 196.207 166.316 195.608C166.323 195.58 166.33 195.551 166.337 195.523C166.458 195.023 166.58 194.524 166.694 194.018C166.722 193.897 166.751 193.776 166.779 193.647C166.9 193.141 167.015 192.627 167.129 192.121C167.171 191.929 167.214 191.736 167.257 191.551C167.371 191.052 167.478 190.56 167.585 190.06C167.649 189.754 167.713 189.44 167.77 189.133C167.942 188.278 168.106 187.429 168.262 186.566C168.298 186.374 168.334 186.174 168.362 185.981C168.398 185.768 168.434 185.554 168.462 185.34C168.484 185.204 168.505 185.062 168.526 184.926C168.562 184.677 168.605 184.427 168.633 184.177C168.64 184.127 168.648 184.085 168.655 184.035C168.69 183.785 168.719 183.536 168.747 183.286C168.797 182.872 168.833 182.459 168.861 182.045C168.876 181.91 168.883 181.767 168.89 181.632C168.919 181.218 168.933 180.804 168.94 180.391C168.94 180.07 168.94 179.756 168.94 179.435C168.926 178.9 168.897 178.366 168.847 177.831V177.817C168.79 177.246 168.712 176.676 168.605 176.105C168.476 175.478 168.997 174.864 169.61 174.779L169.617 174.765Z" fill="#3B4246"/>
<path d="M169.91 205.827C168.833 205.542 168.911 204.372 169.182 203.516C169.403 202.418 169.653 201.099 169.853 200.129C170.929 194.831 172.013 189.497 172.405 184.113C172.37 183.286 172.627 182.252 173.646 182.252C174.274 182.252 174.887 182.801 174.844 183.45C174.53 188.82 173.639 194.118 172.648 199.395C172.299 201.249 171.878 203.089 171.464 204.928C171.314 205.606 170.551 205.991 169.91 205.813V205.827Z" fill="#3B4246"/>
<path d="M176.057 197.07C175.622 196.892 175.393 196.357 175.593 195.922C177.148 192.456 178.702 188.976 180.014 185.418C180.178 184.99 180.706 184.798 181.112 184.969C181.547 185.154 181.718 185.646 181.554 186.067C180.92 187.714 180.335 189.383 179.643 191.009C178.852 192.884 178.032 194.745 177.197 196.599C177.005 197.042 176.491 197.255 176.057 197.063V197.07Z" fill="#3B4246"/>
<path d="M129.499 202.49C129.021 202.211 128.85 201.577 129.135 201.099C130.005 199.609 130.968 198.182 132.009 196.799C132.344 196.35 133.014 196.271 133.456 196.614C134.683 197.776 132.579 199.145 132.087 200.215C131.353 201.013 130.939 203.16 129.499 202.49V202.49Z" fill="#3B4246"/>
<path d="M124.151 193.098C123.83 192.777 123.808 192.207 124.151 191.879C126.247 189.903 128.45 188.042 130.811 186.388C131.182 186.124 131.695 186.167 131.98 186.538C132.258 186.894 132.194 187.436 131.831 187.707C130.183 188.955 128.557 190.231 127.003 191.593C127.003 191.593 127.003 191.594 127.01 191.586C126.169 192.1 125.242 193.982 124.151 193.091V193.098Z" fill="#3B4246"/>
<path d="M130.59 191.715C130.262 191.387 130.247 190.809 130.59 190.488C131.716 189.433 132.857 188.385 134.027 187.379C134.383 187.073 134.968 187.172 135.246 187.536C135.845 188.349 134.847 188.955 134.305 189.44C134.319 189.426 134.341 189.411 134.355 189.397C133.499 190.16 132.651 190.93 131.809 191.715C131.467 192.036 130.925 192.057 130.583 191.715H130.59Z" fill="#3B4246"/>
<path d="M137.421 204.914C137.143 204.636 137.115 204.13 137.421 203.859C138.362 203.01 139.268 202.19 140.224 201.399C140.908 200.835 141.835 201.891 141.186 202.497C140.238 203.345 139.404 204.087 138.477 204.914C138.17 205.185 137.721 205.214 137.421 204.914Z" fill="#3B4246"/>
<path d="M137.999 218.634C137.243 218.327 137.115 217.35 137.578 216.744C138.904 214.113 140.53 211.603 142.491 209.399C143.504 208.337 145.222 209.834 144.303 210.99C142.506 213.093 140.858 215.339 139.618 217.814C139.639 217.771 139.66 217.728 139.682 217.686C139.432 218.377 138.748 218.976 138.006 218.641L137.999 218.634Z" fill="#3B4246"/>
<path d="M140.887 219.461C140.758 217.764 141.422 210.647 144.046 211.653C144.695 211.931 145.023 212.715 144.745 213.371C144.117 214.79 143.675 216.302 143.568 217.857C143.511 218.983 143.825 220.738 142.22 220.787C141.493 220.787 140.901 220.188 140.894 219.461H140.887Z" fill="#3B4246"/>
<path d="M150.984 204.229C149.936 202.147 153.837 201.213 155.191 200.536C158.336 199.452 161.745 198.147 165.096 198.981C166.173 199.309 168.12 199.651 167.549 201.206C166.722 202.832 164.925 201.192 163.627 201.256C160.326 201.234 157.316 202.625 154.364 203.88C153.309 204.415 151.904 205.67 150.991 204.229H150.984Z" fill="#3B4246"/>
<path d="M161.46 210.968C161.103 207.966 160.311 206.519 157.274 205.756C155.505 205.449 153.708 206.076 152.111 206.797C150.67 207.424 149.587 205.285 150.956 204.493C154.336 202.461 159.042 202.604 161.738 205.691C162.936 207.075 163.128 208.957 163.421 210.697C163.506 211.232 163.1 211.738 162.572 211.81C162.037 211.881 161.545 211.496 161.46 210.961V210.968Z" fill="#3B4246"/>
<path d="M137.029 213.001C134.405 209.136 136.052 204.272 138.191 200.586C138.826 199.202 140.445 193.483 142.555 194.474C142.976 194.724 143.119 195.173 143.062 195.637C142.534 197.377 141.429 198.753 140.545 200.315C140.124 201.712 139.824 203.11 139.546 204.515C143.24 201.049 147.897 198.589 152.703 197.049C153.908 196.82 154.607 198.118 154.029 199.124C153.287 200.6 152.382 201.99 151.605 203.452C150.193 205.834 149.423 208.472 147.761 210.676C146.92 211.674 145.272 210.904 145.586 209.599C147.44 206.54 148.838 203.146 150.799 200.122C146.214 201.998 141.693 204.558 138.748 208.651C138.477 209.128 138.327 209.784 137.714 209.913C137.892 210.683 138.234 211.396 138.662 212.059C139.275 213.122 137.671 214.07 137.029 213.015V213.001Z" fill="#3B4246"/>
<path d="M145.957 174.144C145.023 167.534 150.399 167.149 155.498 166.764C156.725 166.607 158.286 166.735 158.322 168.304C158.322 169.067 157.737 169.773 156.967 169.858C154.707 170.101 149.715 169.53 148.353 171.584C147.611 172.654 148.681 175 146.969 175.164C146.42 175.164 145.957 174.7 145.957 174.151V174.144Z" fill="#3B4246"/>
<path d="M142.719 170.785C141.329 170.479 140.473 168.96 141.058 167.627C141.743 166.043 143.554 165.337 145.087 164.888C146.463 164.596 148.089 163.918 149.444 164.539C154.678 162.578 160.383 161.038 165.981 162.178C167.278 162.542 169.653 162.414 169.475 164.325C169.368 165.116 168.598 165.73 167.792 165.601C161.46 164.346 155.092 166.036 149.38 168.775C147.283 169.694 145.115 171.213 142.727 170.785H142.719Z" fill="#3B4246"/>
<path d="M176.598 191.7C176.691 192.185 176.763 192.677 176.827 193.169C176.42 194.089 176.007 195.009 175.593 195.929C175.401 196.364 175.629 196.892 176.057 197.077C176.377 197.22 176.748 197.134 176.998 196.899C176.898 199.915 176.185 202.882 174.773 205.556C168.291 216.915 154.172 222.114 143.597 217.529C143.739 216.088 144.16 214.698 144.745 213.378C145.023 212.722 144.702 211.938 144.046 211.66C143.96 211.624 143.882 211.603 143.803 211.589C143.967 211.389 144.131 211.189 144.303 210.997C145.23 209.849 143.511 208.344 142.491 209.407C141.094 210.975 139.867 212.701 138.797 214.519C138.405 214.184 138.02 213.828 137.649 213.45C138.341 213.578 139.126 212.844 138.669 212.045C138.248 211.382 137.906 210.662 137.728 209.891C138.341 209.77 138.491 209.107 138.762 208.629C141.707 204.536 146.228 201.983 150.813 200.101C148.852 203.124 147.454 206.519 145.6 209.578C145.287 210.876 146.941 211.653 147.775 210.654C148.888 209.178 149.601 207.517 150.371 205.862C150.542 206.576 151.262 207.167 152.118 206.797C153.715 206.069 155.512 205.449 157.281 205.756C160.326 206.519 161.117 207.966 161.474 210.968C161.559 211.503 162.059 211.888 162.586 211.817C163.114 211.746 163.52 211.232 163.435 210.704C163.142 208.964 162.95 207.082 161.752 205.698C160.283 204.016 158.208 203.203 156.083 203.153C158.493 202.14 160.968 201.242 163.634 201.256C163.998 201.242 164.397 201.356 164.804 201.491C164.405 202.925 163.991 204.351 163.549 205.77C163.342 206.447 163.791 207.182 164.455 207.36C165.132 207.553 165.838 207.132 166.045 206.454C167.699 201.07 169.125 195.601 170.181 190.068C170.673 190.267 171.158 190.474 171.643 190.681C171.143 193.847 170.509 196.999 169.867 200.143C169.667 201.113 169.418 202.433 169.197 203.531C168.926 204.386 168.847 205.556 169.924 205.841C170.566 206.019 171.329 205.634 171.478 204.957C171.899 203.117 172.313 201.277 172.662 199.423C173.147 196.863 173.604 194.289 173.981 191.708C174.324 191.857 174.673 192.014 175.023 192.171C175.579 192.428 176.263 192.2 176.613 191.708L176.598 191.7Z" fill="#667C82"/>
<path d="M157.024 198.61C158.343 198.546 159.634 198.653 160.918 198.874C158.964 199.188 157.031 199.894 155.191 200.529C154.614 200.821 153.566 201.156 152.646 201.612C153.131 200.785 153.616 199.965 154.043 199.109C154.122 198.974 154.172 198.839 154.207 198.696C154.436 198.86 154.728 198.938 155.084 198.888C155.726 198.76 156.375 198.66 157.031 198.61H157.024Z" fill="#667C82"/>
<path d="M172.919 182.509C172.498 182.865 172.384 183.543 172.405 184.12C172.313 185.397 172.177 186.666 172.02 187.928C171.564 187.75 171.101 187.579 170.637 187.408C170.687 187.137 170.73 186.873 170.773 186.609C170.894 185.775 171.272 183.008 171.35 180.362C171.913 181.04 172.441 181.76 172.919 182.502V182.509Z" fill="#667C82"/>
<path d="M176.171 189.811C175.572 189.497 174.965 189.198 174.352 188.912C174.481 187.843 174.595 186.773 174.687 185.703C175.301 187.03 175.793 188.406 176.171 189.811Z" fill="#667C82"/>
<path d="M63.6162 160.595C64.1225 159.804 64.4505 158.67 63.4664 158.1C62.8532 157.743 61.9618 157.936 61.6195 158.584C60.1719 161.337 58.9526 164.225 57.9685 167.177C57.726 167.89 58.2395 168.689 58.9383 168.882C59.2307 168.96 59.5587 168.939 59.8439 168.817C59.6015 170.843 59.4089 172.868 59.2948 174.893C59.2663 176.597 61.8762 176.761 62.083 175.085C62.4966 170.657 62.8888 166.215 63.6661 161.836C63.7231 161.508 63.6376 161.18 63.4664 160.916C63.5163 160.809 63.5734 160.702 63.6233 160.595H63.6162ZM80.5022 170.978C81.3864 170.793 82.8055 170.807 82.6771 169.566C82.5987 169.017 82.0639 168.582 81.5005 168.675C77.3789 169.523 70.1695 170.686 67.7236 174.508C67.1103 175.093 66.5185 175.706 65.9409 176.319C65.4132 176.882 65.3846 177.767 65.9409 178.323C68.5864 180.462 68.7647 173.395 78.9548 174.344C80.0601 174.379 80.98 173.395 80.98 172.319C80.9657 171.727 80.7803 171.292 80.4951 170.985L80.5022 170.978ZM89.7938 176.034C91.17 176.062 91.3055 173.944 89.9435 173.78C83.269 173.239 76.1951 174.508 70.6615 178.43C69.8201 179.221 67.0461 180.804 68.2014 182.109C69.2139 183.036 70.0126 181.632 70.7257 181.033C75.9883 176.718 83.1763 175.699 89.7938 176.034V176.034ZM88.5673 168.611C91.9188 169.509 93.3236 164.382 89.9863 163.441C85.4653 161.48 68.0944 163.163 69.7131 169.823C71.2677 171.734 73.2001 169.566 74.7832 168.86C79.0974 166.757 84.0962 167.391 88.5744 168.618L88.5673 168.611ZM98.6361 157.408C98.9499 156.873 98.8429 156.074 98.3081 155.704C96.6609 154.556 94.9209 153.536 93.1168 152.644C89.48 150.748 85.4796 149.35 81.3294 149.706C80.6662 149.721 80.11 150.248 80.11 150.926C80.11 151.603 80.6662 152.16 81.3294 152.145C82.6843 152.095 84.032 152.131 85.3655 152.395C89.5157 153.4 93.2808 155.582 96.8391 157.871C97.4381 158.264 98.2867 158 98.6361 157.401V157.408ZM95.9763 151.511C106.302 156.203 107.806 170.037 103.072 179.293C98.0799 189.055 87.1553 194.674 76.5517 195.844C70.3406 195.779 65.5986 193.048 62.297 188.855C62.518 188.791 62.7391 188.677 62.9173 188.52C63.9585 187.807 65.1065 187.279 66.2974 186.851C70.8113 185.34 75.5177 185.161 80.2669 185.44C81.1939 185.568 82.6985 185.76 82.891 184.398C82.9838 183.707 82.4775 182.951 81.7501 182.894C76.0525 182.494 70.1196 182.83 64.7785 185.005C63.987 185.454 61.8192 186.203 61.1132 187.208C52.9055 174.522 55.929 151.632 69.6917 144.879C72.2517 152.188 85.337 144.394 95.9763 151.511V151.511Z" fill="#5A6D72"/>
<path d="M134.312 189.433C134.847 188.948 135.845 188.349 135.253 187.536C134.975 187.179 134.391 187.072 134.034 187.379C132.865 188.385 131.724 189.433 130.597 190.488C130.255 190.809 130.269 191.387 130.597 191.715C130.939 192.057 131.474 192.036 131.823 191.715C132.665 190.93 133.513 190.16 134.369 189.397C134.355 189.411 134.333 189.426 134.319 189.44L134.312 189.433ZM166.986 184.291C167.264 183.628 166.943 182.872 166.294 182.587C161.837 180.719 156.981 179.521 152.125 179.656C150.506 179.706 150.521 182.081 152.125 182.109C156.66 181.945 161.082 183.436 165.282 184.983C165.931 185.233 166.708 184.969 166.986 184.291V184.291ZM168.854 177.795C169.14 180.712 168.79 183.65 168.27 186.545C164.676 185.283 161.01 184.22 157.245 183.742C155.655 183.578 155.348 185.91 156.917 186.153C160.639 186.673 164.255 187.771 167.778 189.119C167.713 189.433 167.649 189.739 167.592 190.046C167.072 192.499 166.494 194.952 165.881 197.384C162.287 196.264 158.45 195.63 154.728 196.393C154.157 196.478 153.829 196.835 153.715 197.248C153.451 197.049 153.109 196.956 152.703 197.034C147.904 198.575 143.247 201.035 139.546 204.5C139.589 204.272 139.632 204.044 139.682 203.823C140.167 203.388 140.651 202.96 141.172 202.49C141.814 201.898 140.915 200.864 140.245 201.37C140.338 201.013 140.438 200.657 140.545 200.3C141.429 198.739 142.527 197.362 143.055 195.622C143.112 195.166 142.969 194.71 142.548 194.467C140.438 193.476 138.812 199.202 138.184 200.578C136.159 204.058 134.583 208.594 136.623 212.337C135.061 210.505 133.727 208.273 132.701 205.627C132.03 204.479 131.453 203.274 130.968 202.012C131.381 201.448 131.688 200.636 132.08 200.208C132.565 199.138 134.669 197.762 133.449 196.607C133.007 196.264 132.344 196.343 132.002 196.792C131.346 197.662 130.718 198.553 130.126 199.466C129.249 196.314 128.921 192.984 129.171 189.761C130.041 189.062 130.925 188.377 131.816 187.7C132.18 187.429 132.244 186.887 131.966 186.531C131.681 186.16 131.167 186.117 130.797 186.381C130.354 186.695 129.905 187.015 129.47 187.343C130.868 179.221 136.138 172.304 145.729 171.556C145.8 171.548 145.871 171.534 145.935 171.52C145.807 172.262 145.8 173.124 145.943 174.137C145.943 174.686 146.406 175.15 146.955 175.15C148.667 174.986 147.597 172.64 148.339 171.57C149.016 170.55 150.578 170.179 152.261 170.03C152.974 171.855 154.6 173.274 157.06 173.224C161.602 173.224 165.617 174.986 168.84 177.788L168.854 177.795Z" fill="#5A6D72"/>
</svg>
